<svg xmlns="http://www.w3.org/2000/svg" viewBox="221.25 634.63 2199.75 636"><path d="M221.25 635.25c37.5 0 37.5 0 42 .75.246 43.559.496 87.121.75 132l9-9c3.188-2.813 3.188-2.813 4.605-4.02 2.067-1.82 3.965-3.796 5.899-5.757a86.632 86.632 0 0 1 4.45-4.051c2.241-1.926 4.343-3.942 6.421-6.047 2.52-2.555 5.129-4.93 7.852-7.266 1.699-1.515 3.296-3.113 4.898-4.734 2.52-2.555 5.129-4.93 7.852-7.266 1.699-1.515 3.296-3.113 4.898-4.734 2.52-2.555 5.129-4.93 7.852-7.266 1.699-1.515 3.296-3.113 4.898-4.734 2.52-2.555 5.129-4.93 7.852-7.266 1.699-1.515 3.296-3.113 4.898-4.734 2.52-2.555 5.129-4.93 7.852-7.266 2.304-2.054 4.437-4.27 6.605-6.464 1.988-1.961 4.078-3.77 6.195-5.586 1.555-1.38 3.012-2.829 4.473-4.309a96.75 96.75 0 0 1 5.953-5.578c2.242-1.926 4.344-3.942 6.422-6.047 2.52-2.555 5.129-4.93 7.852-7.266 2.242-2 4.328-4.148 6.421-6.304L399 640.5c.54-.645.54-.645 1.086-1.305 3.152-3.375 5.594-4.324 10.207-4.554 2.098-.024 4.191.02 6.289.07 1.125.008 2.25.012 3.375.016 2.945.015 5.89.066 8.836.12 2.398.036 4.8.055 7.2.071 4.968.031 9.94.078 14.91.164.878.016 1.757.027 2.66.043 2.367.121 4.613.438 6.937.875v1.5c-.496.246-.988.496-1.5.75-.246.742-.496 1.484-.75 2.25-1.203 1.184-1.203 1.184-2.719 2.438-2.058 1.742-4.02 3.507-5.906 5.437-2.277 2.32-4.688 4.441-7.148 6.563-1.856 1.648-3.582 3.406-5.32 5.18a85.086 85.086 0 0 1-4.192 3.816c-3.164 2.75-6.219 5.605-9.262 8.488-1.125 1.062-2.246 2.125-3.371 3.183l-1.695 1.602a1532.402 1532.402 0 0 1-7.356 6.887l-1.383 1.289c-.921.86-1.84 1.715-2.757 2.57-1.418 1.324-2.836 2.645-4.25 3.969a2457.228 2457.228 0 0 1-13.22 12.281c-4.655 4.285-9.269 8.617-13.882 12.945a2740.598 2740.598 0 0 1-19.117 17.805c-4.656 4.285-9.27 8.617-13.883 12.945a2740.598 2740.598 0 0 1-19.117 17.805c-4.656 4.285-9.27 8.617-13.883 12.945-2.46 2.313-4.926 4.618-7.394 6.922l-2.793 2.617a431.498 431.498 0 0 1-6.973 6.391c-.457.41-.91.82-1.379 1.246a468.32 468.32 0 0 1-2.605 2.313c-1.008.91-1.957 1.883-2.895 2.863-.238 2.21-.238 2.21.965 3.406.437.407.879.817 1.332 1.235 1.922 1.836 3.715 3.695 5.437 5.718 2.075 2.407 4.254 4.657 6.516 6.891a134.338 134.338 0 0 1 7.668 8.254c2.043 2.297 4.254 4.422 6.441 6.582 1.942 1.969 3.73 4.043 5.532 6.14 1.515 1.7 3.113 3.297 4.734 4.899 2.555 2.52 4.93 5.129 7.266 7.852 1.515 1.699 3.113 3.296 4.734 4.898 2.074 2.047 4.059 4.113 5.953 6.328 2.04 2.379 4.192 4.594 6.422 6.797a134.338 134.338 0 0 1 7.668 8.254c2.043 2.297 4.254 4.422 6.441 6.582 1.942 1.969 3.73 4.043 5.532 6.14 1.515 1.7 3.113 3.297 4.734 4.899 2.074 2.047 4.059 4.113 5.953 6.328 2.04 2.379 4.192 4.594 6.422 6.797a134.338 134.338 0 0 1 7.668 8.254c2.043 2.297 4.254 4.422 6.441 6.582 1.942 1.969 3.73 4.043 5.532 6.14 1.515 1.7 3.113 3.297 4.734 4.899 2.55 2.516 4.922 5.113 7.246 7.836 2.16 2.41 4.5 4.637 6.836 6.875C425.25 951 425.25 951 425.25 952.5c47.086-.43 47.086-.43 94.172-1.125.785-.012 1.566-.027 2.375-.04 7.844-.136 15.64-.331 23.453-1.085-.625-1.078-.625-1.078-1.266-2.176-12.05-20.922-19.832-43.176-20.484-67.574l-.047-1.676c-.941-39.488 11.235-74.496 38.063-103.652.382-.418.765-.832 1.16-1.262 22.742-24.207 54.98-38.722 88.058-40.344.828-.02 1.66-.043 2.516-.066.96-.031 1.926-.059 2.914-.09 36.727-.765 69.313 11.024 96.086 36.09 3.75 3.61 7.156 7.238 10.5 11.25.246-13.363.496-26.73.75-40.5l16.969-.047c1.761-.008 3.52-.012 5.332-.02 1.406-.003 2.808-.003 4.21-.007l2.192-.012h2.117c.606 0 1.207-.004 1.828-.004 2.133.106 4.247.488 6.352.84v263.25h-2.25v3h-34.5V1005h-2.25c-.246-12.375-.496-24.75-.75-37.5-3.219 3.465-6.434 6.93-9.75 10.5-1.988 1.832-3.906 3.566-6 5.25l-1.422 1.172c-16.515 13.453-34.867 22.41-55.578 27.328-.559.133-1.121.27-1.695.406-17.496 3.957-39.383 3.797-56.805-.406a434.44 434.44 0 0 1-1.926-.465c-26.316-6.562-46.773-19.691-65.902-38.676-.64-.632-1.281-1.265-1.938-1.918-.613-.613-1.226-1.23-1.855-1.863-.543-.547-1.086-1.09-1.645-1.652-1.734-1.926-1.734-1.926-2.722-3.469-1.074-1.656-2.098-3.078-3.512-4.457-2.469-.512-3.945-.594-6.383-.395l-4.258.165c-1.203.058-1.203.058-2.433.12a267.09 267.09 0 0 1-8.906.192l-1.684.012c-1.16.011-2.32.02-3.48.027-3.067.027-6.133.067-9.2.11l-1.914.023c-1.293.016-2.59.031-3.883.05a9859.237 9859.237 0 0 0-75.61 1.195c8.618 9.196 8.618 9.196 17.251 18.376l1.48 1.574c2.508 2.668 5.02 5.328 7.54 7.98 7.367 7.77 14.093 15.81 20.511 24.384.457.605.91 1.207 1.383 1.828 4.016 5.43 7.191 10.879 6.586 17.859-2.422 8.398-6.813 15.453-11.906 22.5-1.676 2.137-1.676 2.137-2.344 4.5 4.25.715 8.39.883 12.695.934 1.465.027 2.93.05 4.39.074 2.274.035 4.548.07 6.821.101 9.383.125 18.547.547 27.844 1.891 1.098.148 1.098.148 2.219.297 2.586.433 4.156.765 5.89 2.797.317 4.828-2.699 8.113-5.722 11.562-3.145 3.477-6.352 6.625-10.293 9.207-1.328.914-1.328.914-1.844 3.137 5.55 6.625 14.426 6.934 22.563 7.727 6.73.52 13.417.64 20.167.62 1.774-.003 3.547 0 5.32.005 5.759.003 11.505-.094 17.259-.372 10.609-.507 21.203-.601 31.824-.605l5.652-.012c5.504-.008 11.008-.008 16.516-.004h4.64c26.567-.004 53.125.106 79.684.844.594.016 1.188.031 1.797.05 12.281.34 24.562.759 36.828 1.497.14-.887.14-.887.29-1.793.46-1.957.46-1.957 1.866-3.27 8.32-4.894 21.168-.984 29.907.954 3.78.804 7.613 1.312 11.437 1.859l5.484.844 4.266.656v2.25H810v3c-12.32 4.816-24.68 9.063-38.063 9.14-.816.012-1.632.02-2.472.032-2.164-.168-3.387-.55-5.215-1.672v-1.5c-.742-.246-1.484-.496-2.25-.75v-3c-10.18-.02-20.363-.031-30.543-.04-4.73-.003-9.465-.007-14.195-.015-19.899-.039-39.79.004-59.684.395l-2.379.047c-23.394.465-46.726 1.508-70.058 3.316-.778.059-1.555.117-2.356.18-8.527.664-17.004 1.492-25.488 2.57-7.352.926-14.535 1.395-21.938 1.328-1.02.008-2.035.016-3.054.028-9.41.015-19.278-.832-26.805-7.059v-1.5c-.742-.246-1.484-.496-2.25-.75-2.293-2.91-3.21-6.07-3-9.75 1.191-4.14 3.68-6.977 6.84-9.8 2-2.055 3.527-4.345 5.16-6.7-.684.145-1.371.285-2.078.434-38.586 8.023-38.586 8.023-56.563 8.144l-2.617.024c-5.68-.059-10.828-.516-15.55-3.895-2.16-2.484-3.782-4.539-4.051-7.895.75-8.109 6.296-14.234 11.433-20.074 4.664-5.355 4.664-5.355 6.426-11.988-1.176-5.285-3.566-8.902-7.078-12.938-.465-.546-.93-1.097-1.41-1.664-3.957-4.636-8.07-9.125-12.25-13.566-1.57-1.68-3.094-3.398-4.621-5.113a158.732 158.732 0 0 0-7.141-7.446c-1.305-1.332-2.52-2.714-3.734-4.132-2.075-2.407-4.254-4.657-6.516-6.891a134.338 134.338 0 0 1-7.668-8.254c-1.508-1.691-3.094-3.277-4.707-4.871-2.074-2.047-4.059-4.113-5.953-6.328-2.04-2.379-4.192-4.594-6.422-6.797a134.338 134.338 0 0 1-7.668-8.254c-1.508-1.691-3.094-3.277-4.707-4.871-2.074-2.047-4.059-4.113-5.953-6.328-2.04-2.379-4.192-4.594-6.422-6.797a134.338 134.338 0 0 1-7.668-8.254c-1.508-1.691-3.094-3.277-4.707-4.871-2.074-2.047-4.059-4.113-5.953-6.328-2.04-2.379-4.192-4.594-6.422-6.797a134.338 134.338 0 0 1-7.668-8.254c-1.508-1.691-3.094-3.277-4.707-4.871-2.074-2.047-4.059-4.113-5.953-6.328-2.04-2.379-4.192-4.594-6.422-6.797a132.633 132.633 0 0 1-7.617-8.203c-2.246-2.516-4.676-4.848-7.074-7.215-2.012-2.035-3.868-4.164-5.727-6.336-1.508-1.691-3.094-3.277-4.707-4.871-2.074-2.047-4.059-4.113-5.953-6.328-2.664-3.113-5.563-5.965-8.496-8.824C266.25 843 266.25 843 264 840c-.246 54.203-.496 108.406-.75 164.25H261v3h-37.5V1005h-2.25V635.25Zm368.438 167.11c-18.872 21.972-27.801 50.16-26.438 78.89 1.133 14.531 5.344 28.332 12 41.25.352.71.707 1.422 1.07 2.156 2.828 5.485 6.293 10.442 10.028 15.34.902 1.254.902 1.254 2.254 3.59 1.628 2.465 2.851 3.637 5.398 5.164 2.441.426 4.836.332 7.305.254 1.156-.016 1.156-.016 2.336-.035 2.27-.043 4.535-.106 6.804-.172 1.645-.05 3.285-.094 4.93-.137 7.863-.21 15.723-.469 23.582-.746 2.766-.101 5.535-.195 8.305-.281 54.406.176 54.406.176 101.988-22.133.52-.46 1.035-.922 1.57-1.395 12.164-11.347 14.555-29.351 15.145-45.25.207-9.789-.258-19.535-2.465-29.105l-1.5-1.5c-.496.82-.988 1.64-1.5 2.484-.277.461-.559.922-.844 1.399-.82 1.453-.82 1.453-.656 3.617h-1.5c-.383.688-.762 1.375-1.156 2.086-2.606 4.664-5.176 9.172-8.57 13.324-.919 1.07-.919 1.07-.774 2.59h-1.5V876c-.742.246-1.484.496-2.25.75-1.293 1.64-1.293 1.64-2.531 3.61-1.922 2.847-3.676 4.855-6.469 6.89-.45.602-.898 1.207-1.36 1.828-2.73 3.195-5.863 5.36-10.03 6.094-2.645-.527-3.938-1.555-5.86-3.422-1.398-2.793-.566-6.016 0-9 1.414-3.883 3.766-7.32 6.035-10.75.84-1.227.84-1.227.715-2.75h1.5V867h1.5c.969-1.32.969-1.32 1.875-2.953 1.719-2.969 1.719-2.969 3.375-3.797V858c.742-.246 1.484-.496 2.25-.75 1.543-1.633 1.543-1.633 3.047-3.61.52-.656 1.039-1.308 1.574-1.984 1.16-1.605 2.07-3.105 2.879-4.906h1.5a700.122 700.122 0 0 0 3-3.75l3.75-3c.48-.602.96-1.207 1.453-1.828 1.82-2.262 3.777-3.867 6.047-5.672-5.629-20.41-23.344-38.387-41.25-48.75-41.117-22.656-94.195-15.7-126.563 18.61ZM603.75 957c2.668 2.867 5.426 5 8.813 6.984.488.29.976.575 1.476.871 23.934 13.852 49.48 17.59 76.375 10.41 9.805-2.785 22.797-6.59 28.836-15.265-3.016-1.402-5.594-1.766-8.902-1.95-.508-.027-1.016-.058-1.54-.09a905.188 905.188 0 0 0-3.25-.17 946.522 946.522 0 0 1-4.699-.263c-19.07-1.078-38.132-1.402-57.23-1.375-2.953.004-5.902 0-8.852-.004h-10.242a239.659 239.659 0 0 0-20.785.852ZM1341 635.25c36 0 36 0 40.5.75.246 67.074.496 134.145.75 203.25 2.477-2.227 4.95-4.453 7.5-6.75a211.567 211.567 0 0 1 3.984-3.234c3.61-2.918 7-6.012 10.387-9.184 3.16-2.941 6.453-5.672 9.82-8.375 2.258-1.871 4.414-3.836 6.559-5.832 2.781-2.59 5.613-5.074 8.578-7.453 3.137-2.524 6.11-5.172 9.047-7.922 3.57-3.344 7.25-6.477 11.066-9.543 2.258-1.871 4.414-3.836 6.559-5.832 2.781-2.59 5.613-5.074 8.578-7.453 3.137-2.524 6.11-5.172 9.047-7.922 3.563-3.336 7.234-6.469 11.047-9.523 2.77-2.301 5.406-4.73 8.035-7.188 1.004-.941 2.023-1.863 3.043-2.789l1.313-1.219c2.296-1.402 3.957-1.308 6.636-1.297.492-.004.985-.004 1.488-.007 1.618 0 3.235.011 4.852.027 1.129.004 2.258.004 3.387.004 2.363.004 4.73.015 7.094.031 3.023.02 6.043.031 9.066.031 2.89.004 5.781.016 8.672.028.55 0 1.097.004 1.664.004 1.558.003 3.121.015 4.683.027.887.004 1.774.012 2.688.016 2.379.101 4.621.41 6.957.855-3.27 8.023-14.594 15.496-21.191 20.793-2.258 1.871-4.414 3.836-6.559 5.832-2.781 2.59-5.613 5.074-8.578 7.453-3.137 2.524-6.11 5.172-9.047 7.922-3.57 3.344-7.25 6.477-11.066 9.543-2.258 1.871-4.414 3.836-6.559 5.832-3.441 3.203-7 6.191-10.664 9.14-2.664 2.215-5.191 4.563-7.727 6.923a141.18 141.18 0 0 1-7.437 6.39c-3.137 2.524-6.11 5.172-9.047 7.922-3.57 3.344-7.25 6.477-11.066 9.543-2.258 1.871-4.414 3.836-6.559 5.832-2.8 2.605-5.645 5.102-8.625 7.5-3.82 3.074-7.418 6.344-11.012 9.676a321.544 321.544 0 0 1-8.113 7.199c3.012 3.727 6.21 6.938 9.855 10.05 2.145 1.95 2.145 1.95 4.004 4.095 3.649 3.996 6.465 6.535 12.024 6.812 3.168-.023 6.304-.23 9.46-.473 1.387-.074 2.77-.144 4.157-.21 2.887-.149 5.766-.317 8.648-.504 4.243-.274 8.489-.454 12.735-.606 42.36-1.594 86.676-7.336 118.816-37.742 1.801-1.672 1.801-1.672 3.754-3.219 1.617-1.308 2.899-2.586 4.235-4.172 1.433-1.699 2.87-3.34 4.437-4.914 3.566-3.644 6.16-7.347 8.453-11.867.246-.48.496-.96.75-1.453 3.024-6.274 3.695-12.75 3.656-19.64v-2.06c-.074-5.37-.906-10.316-2.023-15.55-.77-4.258-.281-7.512 1.039-11.64 2.742-3.942 6.77-6.52 10.828-9 2.258-1.653 2.602-2.52 3.422-5.157.273-2.316.273-2.316.313-4.797.027-.902.054-1.8.085-2.73l.07-2.832c.028-.95.06-1.899.087-2.875.074-2.34.136-4.676.195-7.016 5.043-.02 10.09-.031 15.133-.043l5.148-.012c2.469-.011 4.938-.015 7.407-.02l2.312-.01h2.184c.629 0 1.261-.005 1.91-.005 2.148.102 4.281.485 6.406.84.246 9.406.496 18.809.75 28.5l9-10.5c12.473-13.344 29.113-24.984 47.988-25.68 15.074-.293 27.063 2.457 40.512 9.18-1.219 3.398-2.941 6.379-4.781 9.469-.324.547-.649 1.093-.98 1.656-4.403 7.395-8.966 14.715-13.739 21.875-2.98-.438-5.84-1.086-8.742-1.883-11.63-3.152-22.238-1.972-33.07 3.43-17.594 10.277-25.918 29.719-30.938 48.703-2.625 11.574-3.75 23.426-4.5 35.25-.063.887-.121 1.77-.184 2.684-.836 13.328-.734 26.687-.793 40.039-.015 3.593-.039 7.191-.058 10.789-.035 6.785-.07 13.57-.102 20.355-.039 7.738-.078 15.473-.12 23.211-.087 15.89-.165 31.781-.243 47.672H1668v3h-36V1005h-2.25l-.008-2.645c-.078-20.718-.156-41.437-.242-62.152-.008-2.55-.02-5.101-.027-7.652-.004-.508-.008-1.016-.008-1.54-.035-8.218-.063-16.44-.094-24.66-.031-8.433-.062-16.87-.098-25.304-.02-4.738-.039-9.477-.054-14.211-.016-4.461-.035-8.918-.055-13.379-.008-1.637-.012-3.27-.016-4.906-.007-2.239-.02-4.473-.03-6.707v-1.961c-.024-3.535-.278-6.895-.868-10.383-3.43.934-5.387 2.02-7.828 4.594-.578.605-1.156 1.207-1.75 1.832a288.388 288.388 0 0 0-5.617 6.347c-4.078 4.61-8.578 8.793-13.305 12.727l-1.105.922c-6.094 5.043-12.364 9.418-19.254 13.293-.903.512-1.805 1.027-2.704 1.547-20.574 11.965-44.265 17.968-67.734 20.754l-2.281.273c-13.469 1.484-27.027 1.629-40.563 1.875-8.226.152-16.406.367-24.609 1.086 3.328 3.395 6.703 6.668 10.305 9.77 2.066 1.804 4.086 3.656 6.101 5.511 4.004 3.684 8.043 7.336 12.094 10.969a1346.54 1346.54 0 0 1 12.094 10.969c2.43 2.234 4.863 4.449 7.36 6.61 3.136 2.718 6.167 5.546 9.21 8.366a316.857 316.857 0 0 0 8.024 7.18c2.414 2.125 4.773 4.305 7.136 6.48 3.617 3.329 7.27 6.614 10.926 9.895a1376.57 1376.57 0 0 1 13.246 12.027c2.64 2.426 5.32 4.805 8.04 7.145 3.343 2.965 3.343 2.965 4.214 5.578a57.852 57.852 0 0 1-.059 3.492c-.441 13.934 1.403 25.875 9.059 37.758l.906 1.438c3.184 4.386 9.024 7.39 14.094 9.062 8.742 1.035 14.926-1.215 22.445-5.371 13.817-7.617 27.551-11.797 43.336-8.14 5.043 1.554 8.797 4.238 12.219 8.261l.633 1.93c.683 1.937.683 1.937 2.41 2.515 6.125.914 12.14.93 18.32.79 1.137-.024 2.278-.04 3.414-.06 2.422-.038 4.844-.085 7.266-.132 5.738-.113 11.477-.203 17.215-.293 1.304-.02 2.61-.04 3.914-.063 13.59-.214 27.176-.257 40.765-.234 1.04 0 2.083.004 3.122.004 5.648.008 11.293.023 16.941.043v-1.5h1.5l.188-1.594c.69-2.644 1.972-4.453 3.562-6.656-1.293-2.438-1.293-2.438-3.75-3 .418-2.508 1.016-4.523 2.25-6.75h1.5c-.246-.742-.496-1.484-.75-2.25-3.219-.496-6.434-.988-9.75-1.5-.246-.742-.496-1.484-.75-2.25h-1.5v-1.5h-1.5c-.094-.695-.094-.695-.188-1.406-.406-1.73-.406-1.73-2.062-2.39-.496-.231-.988-.466-1.5-.704-.246-.742-.496-1.484-.75-2.25-1.492-1.594-3.055-3.05-4.688-4.5-1.312-1.5-1.312-1.5-1.312-4.5l-1.367-.516c-2.113-1.273-2.656-2.53-3.742-4.734-1.52-2.953-3.133-5.625-5.11-8.297-2.152-2.988-3.508-5.851-4.773-9.297-1.086-2.734-2.528-5.23-3.973-7.797-1.84-3.379-3.52-6.84-5.183-10.312-1.188-2.434-2.23-4.563-4.352-6.297-.246.742-.496 1.484-.75 2.25-1.695 1.234-1.695 1.234-3.844 2.531-2.547 1.559-5.02 3.125-7.406 4.922-2.25 1.547-2.25 1.547-4.5 1.547.227.457.453.914.688 1.383 1.367 3.984 1.593 8.195 2.007 12.37.547 4.52 1.328 6.368 4.805 9.497.203 1.844.203 1.844-.14 3.61-.157.89-.157.89-.313 1.796-.149.664-.149.664-.297 1.344h-2.25c.496.988.988 1.98 1.5 3l3-.75c-.012.719-.012.719-.027 1.45-.004.62-.012 1.241-.02 1.878-.008.617-.015 1.235-.027 1.871-.102 1.543-.102 1.543.824 2.301.426 4.293.707 8.313-1.219 12.234-3.535 1.766-6.605 1.438-10.5 1.18-2.52-.129-2.52-.129-4.285 1.195-2.988 1.711-5.789 1.41-9.168 1.328l-1.933-.011c-5.645-.07-5.645-.07-8.145-.926-1.066-2.129-.984-3.64-.75-6 2.273-3.46 5.973-4.156 9.75-5.25.742-.246 1.484-.496 2.25-.75.246-2.227.496-4.453.75-6.75.742-.246 1.484-.496 2.25-.75.246.496.496.988.75 1.5.742-.496 1.484-.988 2.25-1.5v-3c-.512.215-1.02.434-1.547.656-3.031.13-4.066-1.015-6.258-2.984-2.054-2.442-2.382-5.035-2.836-8.125a584.224 584.224 0 0 0-.687-3.817c-.11-.628-.219-1.257-.328-1.906-.5-2.652-1.18-5.222-1.89-7.824-.247-.898-.49-1.797-.743-2.727a294.407 294.407 0 0 0-1.399-4.812c-1.738-5.887-2.746-11.438-.062-17.211 1.5-1.781 1.5-1.781 3-3h1.5v-2.25l1.406-.14c1.801-.481 1.801-.481 2.532-2.532.277-.906.277-.906.562-1.828h2.25l.516-1.266c1.273-2.246 2.8-3.785 4.734-5.484h2.25l.516-1.266c1.68-2.957 3.527-5.136 6.843-6.093l1.641-.141c.246-1.238.496-2.477.75-3.75h3.75c-.324-.586-.648-1.176-.984-1.781-1.547-3.32-2.551-6.692-3.516-10.219-.148-.535-.3-1.074-.453-1.625-.367-1.703-.16-2.754.453-4.375.496-.246.988-.496 1.5-.75.602-1.46.602-1.46 1.078-3.188.856-2.73 1.93-4.867 3.422-7.312 1.059-2.477 2.04-4.984 3-7.5h1.5l.223-1.375c.863-4.832 2.308-9.137 4.277-13.625h1.5c1.637-5.617 1.863-8.906-.758-14.11-1.043-2.308-1.277-4.378-1.492-6.89h-1.5l-.387-1.54c-.933-3.581-1.922-6.952-3.457-10.32-1.68-3.964-1.828-7.796-1.953-12.062-.191-2.207-.555-3.465-1.703-5.328h1.5c-.242-.855-.242-.855-.492-1.727l-.633-2.257-.633-2.243C1710 813 1710 813 1710 810.75c-.496-.742-.988-1.484-1.5-2.25l-1.5-4.5c-.496-.742-.988-1.484-1.5-2.25-.094-2.016-.094-2.016 0-3.75 1.781-.14 1.781-.14 3.75 0 .496.742.988 1.484 1.5 2.25.125-1.016.125-1.016.25-2.055.176-1.324.176-1.324.36-2.68.167-1.316.167-1.316.343-2.663.547-2.348.914-3.176 2.797-4.602 1.875.938 1.875.938 3.75 2.25v3c.496.246.988.496 1.5.75-.125.645-.25 1.285-.383 1.95-1.195 6.616-1.195 6.616.383 13.05.238.637.477 1.273.719 1.93 1.37 3.855 1.37 3.855 3.781 7.07.078.773.156 1.547.234 2.344.563 3.18 1.606 4.894 3.364 7.527 1.574 2.406 2.328 4.863 3.105 7.613.262.914.527 1.825.797 2.766.125.508.254 1.016.383 1.54 1.16 3.92 2.789 5.53 6.36 7.487 1.726.828 3.445 1.602 5.257 2.223v1.5c.742.246 1.484.496 2.25.75.246.496.496.988.75 1.5 3.184 1.809 3.184 1.809 6.75 2.25 1.102-1.11 1.102-1.11 2.11-2.531 2.109-2.559 3.535-3.625 6.89-4.219a79.383 79.383 0 0 1 6.75 0v1.5h3.75c.094.695.094.695.188 1.406l.562 1.594c.672.3.672.3 1.36.61 2.538 1.378 3.69 3.5 4.64 6.14.23 2.277.188 4.473 0 6.75h-1.5c-.973 5.934-.973 5.934 1.5 11.25-.234 2.11-.234 2.11-.75 3.75-1.734-.246-3.465-.496-5.25-.75v-1.5h-2.25v-1.5c-2.355.5-2.355.5-3.14 2.39-.688 2.383-.868 4.137-.61 6.61A202.478 202.478 0 0 0 1770 891c1.488 3.984 2.59 7.707 2.25 12h1.5c.496 2.227.988 4.453 1.5 6.75l3 .75v4.5c.543.14 1.082.277 1.64.422 2.837 1.45 4.391 3.52 5.86 6.328V924c.988.496 1.98.988 3 1.5v3c.719.3.719.3 1.453.61 1.547.89 1.547.89 2.297 3.14.477.11.953.215 1.445.328 1.555.422 1.555.422 2.477 1.781.238.543.476 1.082.719 1.641.828 2.031.828 2.031 2.109 3.75 1.328.074 2.656.098 3.984.094l2.196.008c2.023-.032 2.023-.032 3.742-.532 1.328-.32 1.328-.32 2.828.43-.094 1.734-.094 1.734-.75 3.75-2.297 1.36-2.297 1.36-4.5 2.25.23.434.465.867.703 1.313.797 1.687.797 1.687 1.125 3.328.14.449.277.898.422 1.359.742.246 1.484.496 2.25.75 1.652 2.125 2.316 3.145 2.016 5.86-.172.542-.34 1.081-.516 1.64-1.875-.984-1.875-.984-3.75-2.25v-2.25h-2.25c.246.543.496 1.082.75 1.64.754 2.122.879 3.633.75 5.86l-3 .75-2.25-4.5c-.246 1.734-.496 3.465-.75 5.25H1800c-.742-2.477-1.484-4.95-2.25-7.5-.496.988-.988 1.98-1.5 3h-3c.07-.55.145-1.105.219-1.672.12-1.098.12-1.098.25-2.219.086-.722.176-1.445.265-2.187.016-2.379-.375-3.828-1.484-5.922-1.52-.488-1.52-.488-3-.75-.246-.742-.496-1.484-.75-2.25h-1.5v-1.5c-1.238-.246-2.477-.496-3.75-.75v-1.5c-1.238-.496-2.477-.988-3.75-1.5v-1.5l-1.594-.422c-2.558-1.277-3.777-2.785-5.55-4.976-2.07-2.532-4.454-4.739-6.872-6.93-1.882-2.09-2.543-3.723-3.234-6.422h-1.5l-.89-2.063c-1.454-2.605-2.587-3.875-5.11-5.437-2.031-.25-2.031-.25-3.75 0v6.75c.363 1.688.8 3.344 1.246 5.012.297 2.035-.09 3.476-.496 5.488-.25 2.887-.352 5.777-.469 8.672-.035.828-.066 1.656-.101 2.512-.246 7.05 0 14.007.492 21.043.074 1.453.058 2.91.035 4.367.04 2.234.281 3.578 1.168 5.593.848 1.961 1.125 2.86 1.125 5.063.742.246 1.484.496 2.25.75v1.5l1.406.516c2.086 1.289 2.203 2.48 3.094 4.734a71.178 71.178 0 0 0 4.855 4.734c1.47 1.625 2.375 3.36 3.395 5.297 1.117 2.11 2.215 4.164 3.516 6.172.984 1.797.984 1.797.984 4.797.453.055.906.113 1.371.172 3.23.531 4.973.941 7.395 3.25 1.336 3.496.625 5.855-.516 9.328h1.5c.246-.496.496-.988.75-1.5 1.93.738 2.816 1.121 3.734 3.02l.485 1.761c.511 1.793.988 3.387 1.843 5.047.688 1.422.688 1.422.688 3.672.742.246 1.484.496 2.25.75.75 2.25.75 2.25.281 4.172l-1.031 1.828c-.617.172-1.238.34-1.875.516-.617.324-1.238.648-1.875.984-.496 2.477-.988 4.95-1.5 7.5 10.89.246 21.781.496 33 .75v-306c33 0 33 0 37.5.75.504 50.293.852 100.586.922 150.883 0 .992 0 .992.004 2.004v2c.008 4.66.02 9.324.035 13.984.02 5.719.031 11.434.031 17.152 0 2.942.004 5.88.02 8.82.011 2.708.011 5.415.008 8.122-.004 1.445.007 2.89.02 4.336-.052 10.285-4.044 16.027-10.977 23.37-2.266 2.231-4.766 3.985-7.36 5.813-4.887 3.57-7.793 7.536-9.703 13.266a47.956 47.956 0 0 0-.14 3.09c-.016.62-.028 1.246-.04 1.887l-.03 2.05c-.017.715-.028 1.426-.044 2.16-.043 2.297-.082 4.594-.121 6.891-.172 9.844-.398 19.68-.762 29.516-.054 1.437-.054 1.437-.105 2.906l-.258 7c.746-.004.746-.004 1.508-.004 54.547-.148 109.09-.234 163.633.707l2.898.05c12.191.212 24.383.442 36.57.696 2.403.051 4.801.098 7.204.149 3.824.074 7.648.152 11.468.234 1.39.031 2.778.059 4.168.086 7.168.145 14.301.383 21.45.93 3.992.257 7.976.16 11.976.058 5.066-.07 9.828.399 14.375 2.766 2.172 2.648 2.172 5.234 2.25 8.578h-1.5l-.75 3-1.89-.508c-3.227-.3-5.454.625-8.329 1.914-6.062 2.614-10.86 3.739-17.531 3.094-3.324-1.602-5.488-3.656-7.5-6.75v-3c-79.2-.246-158.398-.496-240-.75v60c-.434 22.633-.434 22.633-.75 31.5l2.906.281c2.907.282 2.907.282 4.594 1.969.863 4.984-.969 8.45-3.316 12.742-1.364 2.5-2.305 4.676-2.684 7.508h-1.5l-.75 3h-1.5v-2.25H1824c-.742-1.734-1.484-3.465-2.25-5.25h-5.25v-2.25h-2.25c-.133-3.84-.152-6.938 1.5-10.5 2.25-.75 2.25-.75 4.5 0v-96.75c-22.09.203-22.09.203-44.176.422-9.023.098-18.043.187-27.062.265-6.574.06-13.145.126-19.719.196-3.473.039-6.945.074-10.418.101-18.379.141-36.297.727-54.25 5.11-22.117 5.254-22.117 5.254-29.625.656-2.11-2.016-3.566-3.945-4.5-6.75-.031-1.75-.031-3.5 0-5.25-8.574 2.191-16.723 4.848-24.879 8.266-33.402 13.933-33.402 13.933-43.215 10.5-1.988-1.102-3.652-2.317-5.406-3.766a811.12 811.12 0 0 1-1.938-1.54c-6.867-5.792-11.585-11.972-13.062-20.96-.11-1.516-.203-3.031-.281-4.547-.41-6.297-3.301-12.152-7.969-16.453-5.23-4.309-10.742-7.883-16.527-11.379-5.106-3.148-9.477-6.922-13.903-10.96a241.25 241.25 0 0 0-4.726-4.192c-2.977-2.59-5.875-5.262-8.778-7.934a288.76 288.76 0 0 0-6.316-5.66c-2.543-2.203-5.023-4.473-7.5-6.75a409.954 409.954 0 0 0-9.012-8.074c-3.027-2.649-6.004-5.356-8.988-8.051l-3.75-3.375-15-13.5-1.867-1.68a1554.89 1554.89 0 0 1-3.813-3.437c-2.808-2.531-5.62-5.059-8.476-7.54-2.977-2.59-5.875-5.261-8.778-7.933a288.76 288.76 0 0 0-6.316-5.66c-2.543-2.203-5.023-4.473-7.5-6.75a393.265 393.265 0 0 0-8.938-8c-2.73-2.402-5.398-4.879-8.07-7.344-1.605-1.543-1.605-1.543-3.242-2.281-.246 37.125-.496 74.25-.75 112.5h-2.25v3h-36v-2.25H1341V635.25Zm-462 0c33.75 0 33.75 0 38.25.75v316.5l81-1.5h10.5l-1.266-2.176c-13.847-24.054-20.847-48.484-20.718-76.34.004-.937.004-.937.004-1.894.039-9.606.406-18.93 2.48-28.34l.438-2.059c8.042-36.632 31.34-67.523 62.671-87.68 32.868-20.46 71.864-22.609 108.829-14.25 25.914 6.141 48.609 22.673 65.062 43.239.246-13.613.496-27.227.75-41.25l16.969-.047c1.761-.008 3.52-.012 5.332-.02 1.406-.003 2.808-.003 4.215-.007l2.187-.012h2.117c.606 0 1.207-.004 1.828-.004 2.133.106 4.247.488 6.352.84v263.25h-2.25v3h-34.5V1005H1227c-.246-12.375-.496-24.75-.75-37.5l-6.469 6.61c-5.773 5.804-11.582 11.183-18.281 15.89-.473.336-.945.672-1.434 1.016-16.777 11.773-35.379 19.015-55.566 22.234-.484.078-.973.156-1.473.238-6.16.836-12.43.696-18.636.7h-1.883c-9.34-.012-18.367-.34-27.508-2.438l-1.805-.402c-8.207-1.871-16.023-4.364-23.695-7.848-.484-.219-.969-.438-1.465-.664-14.879-6.856-27.168-16.652-39.035-27.836-.824-.777-.824-.777-1.664-1.566-3.52-3.418-6.613-7.114-9.672-10.942-1.371-1.754-1.371-1.754-2.914-3.242a93.418 93.418 0 0 0-6.777-.102l-2.137.024c-2.344.023-4.691.058-7.04.094-1.644.023-3.288.039-4.929.058-4.355.051-8.71.11-13.066.172-5.203.07-10.41.133-15.614.195-4.07.051-8.14.098-12.21.157-8.48.113-16.957.164-25.438.156h-3.016c-2.425 0-4.847-.004-7.273-.004v1.754a301531.903 301531.903 0 0 1 .043 115.344v2.488c.004 13.277.008 26.555.016 39.836.007 13.637.011 27.277.011 40.914 0 8.406.004 16.812.012 25.219.004 5.777.004 11.55.004 17.324 0 3.328 0 6.652.004 9.976.027 25.57.027 25.57-.84 38.145l2.156-.14 2.344.14c1.602 2.402 1.672 3.016 1.594 5.766-.012.605-.028 1.21-.04 1.836-.019.46-.034.921-.054 1.398H921l-.75 3c-.586-.14-1.176-.277-1.781-.422-1.946-.523-1.946-.523-3.469.422l-1.031 2.11c-1.172 2.3-2.313 3.683-4.219 5.39l-.75-3c-.496.246-.988.496-1.5.75-.086-.668-.086-.668-.172-1.352-.621-3.933-1.617-6.89-3.672-10.32-2.273-3.887-2.66-6.375-2.156-10.828.75-.75.75-.75 2.137-.824 1.535.023 3.074.05 4.613.074.016-22.523.031-45.043.04-67.566 0-2.672 0-5.348.003-8.02v-1.613c.004-8.559.008-17.117.016-25.676.007-8.813.011-17.625.011-26.441 0-4.938.004-9.875.008-14.813.067-24.27.067-24.27-.281-48.539-.035-1.445-.059-2.887-.086-4.332-.254-8.11-1.781-13.418-7.41-19.34-2.63-2.45-5.418-4.605-8.293-6.754-5.797-4.332-10.914-9.125-13.258-16.156a97.069 97.069 0 0 1-.086-4.523v-2.82l.012-3.048c.004-1.039.004-2.078.004-3.117.004-2.734.011-5.469.02-8.203.007-2.789.01-5.578.015-8.371.008-5.473.02-10.945.035-16.418-.813.008-1.629.016-2.469.027-1.082.008-2.164.012-3.25.02-.535.008-1.07.012-1.62.02-3.15.015-6.052-.262-9.161-.817a61.108 61.108 0 0 0-3.59.008l-1.953.035c-1.34.035-2.676.074-4.016.117-3.703.063-6.199.04-9.191-2.41-3.031-3.453-3.848-5.172-3.75-9.75.574.2 1.145.402 1.734.61 3.633.183 5.871-1.083 9.078-2.688 6.653-3.16 15.317-2.313 22.188-.172 1.297 1.031 1.297 1.031 2.25 2.25.14 2.39.14 2.39 0 4.5 1.238.246 2.477.496 3.75.75v-316.5ZM1051.5 804c-10.305 11.934-17.715 26.809-21.75 42-.156.543-.309 1.09-.469 1.648-4.308 15.579-4.36 34.477-.281 50.102l.39 1.555c4.446 17.508 12.82 33.18 25.11 46.445.45.527.898 1.059 1.36 1.602 2.05 1.75 3.046 1.757 5.71 1.718 1.176-.011 1.176-.011 2.371-.02.813-.023 1.63-.042 2.465-.066l2.446-.023c3.78-.05 7.433-.164 11.148-.961-.371-.559-.742-1.113-1.125-1.688-1.832-3.742-1.766-7.769-1.125-11.812 1.148-2.594 2.66-4.605 4.5-6.75l.957-1.281c3.883-4.653 10.691-6.723 16.527-7.578l2.016-.141a79.406 79.406 0 0 0-.879-13.586c-.094-.637-.184-1.273-.277-1.926-.297-2.05-.602-4.097-.907-6.144-.207-1.414-.414-2.828-.617-4.246-.507-3.48-1.023-6.961-1.539-10.438-.336-2.273-.672-4.55-1.004-6.824-.566-3.832-1.132-7.668-1.707-11.5l-.3-2.031c-.23-1.551-.473-3.102-.711-4.649-.317-2.476-.461-4.883-.496-7.375l-.06-2.468c.345-3.227 1.427-5.137 3.876-7.254 3.82-2.457 7.726-4.555 11.809-6.543 2.93-1.446 5.816-2.965 8.703-4.5.53-.282 1.066-.567 1.613-.86 1.101-.582 2.2-1.168 3.3-1.754 2.891-1.539 5.786-3.07 8.68-4.605.536-.281 1.067-.567 1.618-.86 1.378-.73 2.765-1.46 4.148-2.187.523-.305 1.047-.605 1.586-.922 3.277-1.34 6.96-1.004 10.414-.578 2.98 1.516 3.91 2.395 5.21 5.387 1.618 5.18 2.071 10.574 2.65 15.949.37 3.375.874 6.719 1.421 10.07a1445.315 1445.315 0 0 1 5.922 40.309c.379 2.844.79 5.68 1.211 8.515.11.739.219 1.48.328 2.243.207 1.41.418 2.816.637 4.222.797 5.508 1.008 10.563-2.117 15.461-4.614 6.133-9.399 9.09-16.809 10.907-9.23.785-9.23.785-13.453-2.063-3.352-3.531-4.031-6.246-3.96-11.086.636-5.012 3.167-8.926 6.96-12.164l1.64-1.547c5.06-3.484 10.297-4.812 16.36-5.203-.516-6.938-1.496-13.797-2.531-20.672-.086-.562-.168-1.125-.258-1.703a1834.56 1834.56 0 0 0-1.02-6.766 522.8 522.8 0 0 1-1.308-9.172c-.168-1.199-.336-2.394-.508-3.593-.063-.52-.121-1.04-.188-1.574-.386-2.594-.886-3.72-2.734-5.63-1.922-1.398-1.922-1.398-4.297-.765-.972.363-1.941.738-2.906 1.125-.594.195-1.188.39-1.8.594-5.02 1.687-9.673 3.945-14.376 6.355a155.666 155.666 0 0 1-7.027 3.317c-5.695 2.195-5.695 2.195-9.797 6.234.066 7.703 1.379 15.363 2.559 22.96.308 1.97.609 3.942.906 5.911.676 4.438 1.36 8.871 2.043 13.309a3551 3551 0 0 1 1.523 9.945l.38 2.422c1.702 11.215 1.702 11.215-.52 15.719a277.27 277.27 0 0 0-.836 1.707c-.266.504-.532 1.007-.805 1.527l-1.078 2.063c-1.43 2.058-3.137 3.687-4.922 5.437 35.457.75 82.887 1.281 110.227-24.648 12.32-13.024 13.914-34.887 13.468-51.965-.742-17.473-4.933-34.067-13.445-49.387-.371-.68-.738-1.363-1.117-2.066-3.094-5.442-6.95-10.336-10.883-15.184-.531-.66-1.066-1.32-1.613-2-16.274-19.09-41.352-29-65.887-31-32.504-1.93-62.855 8.402-84.75 33Zm88.547 26.063c-2.078 1.207-4.129 2.148-6.375 3-5.578 2.156-10.848 4.976-16.172 7.687-1.672.844-3.344 1.691-5.016 2.531-.683.348-1.367.692-2.07 1.047-1.914.922-1.914.922-3.945 1.703-1.824.637-1.824.637-3.219 2.219-.074 1.613-.074 1.613.188 3.375l.199 1.805c.254 1.726.254 1.726 1.863 3.07.762-.39 1.523-.777 2.309-1.18 9.351-4.75 9.351-4.75 14.191-6.695 4.195-1.688 8.207-3.676 12.23-5.734.477-.246.957-.489 1.45-.743.465-.234.93-.472 1.41-.718 1.426-.688 2.875-1.27 4.348-1.844.765-.36 1.527-.719 2.312-1.086.844-2.535.613-3.574.047-6.14-.145-.676-.293-1.352-.442-2.048l-.355-1.562c-1.07-.063-1.07-.063-2.953 1.313ZM1066.5 957c13.625 13.879 36.867 21.688 55.969 21.93 20.976.054 43.941-3.973 60.281-18.18-.246-.496-.496-.988-.75-1.5-2.863-.793-5.758-.941-8.71-1.125l-1.485-.094-3.133-.187c-1.508-.09-3.012-.184-4.516-.282-19.14-1.183-38.3-1.437-57.472-1.41-2.895.004-5.786 0-8.68-.004h-10.051c-7.187-.011-14.293.29-21.453.852Zm0 0" style="stroke:none;fill-rule:nonzero;fill:#fff;fill-opacity:1"/><path d="M1964.25 647.25c34.5 0 34.5 0 39 .75v95.25H2046c23.09 4.328 23.09 4.328 30.61 14.953 6.718 11.516 7.062 26.574 4.398 39.383-2.84 10.719-9.903 20.191-19.211 26.242-13.73 7.578-29.79 10.402-45.047 13.172-1.23.227-1.23.227-2.484.453-1.18.207-1.18.207-2.38.422l-2.09.367c-2.046.258-2.046.258-6.546.258V957c6.93-3.96 13.86-7.922 21-12 12.605-7.086 25.262-13.977 38.14-20.543a889.772 889.772 0 0 0 6.641-3.434c12.907-6.664 26.184-11.93 39.969-16.523.246-54.203.496-108.406.75-164.25 33 0 33 0 37.5.75v155.25c1.98-.496 3.96-.988 6-1.5 65.703-11.895 141.078-4.453 253.781 9.422.578.14 1.16.277 1.758.422 3.719.965 7.563 2.144 10.711 4.406.918 1.598.918 1.598 1.5 3-.742.496-1.484.988-2.25 1.5v1.5c-.691.2-1.379.402-2.094.61-6.351 1.937-11.867 4.433-17.535 7.886-2.629 1.555-4.508 2.102-7.512 2.05l-2.859-.046V924c-.742-.246-1.484-.496-2.25-.75.219-3.578 1.918-5.293 4.293-7.766 1.187-1.27 1.187-1.27.957-3.484-1.293-.59-2.59-1.164-3.89-1.734-.723-.32-1.446-.645-2.188-.977-9.735-3.7-20.219-4.219-30.485-5.164-.847-.078-1.69-.16-2.562-.242-18.434-1.735-36.887-2.922-55.375-3.883-.934-.05-1.867-.102-2.828-.152a600.13 600.13 0 0 0-15.922-.598l-1.766-.047C2225 897.66 2225 897.66 2173.36 900.281c-1.355.13-1.355.13-2.738.258-7.59.777-15.098 1.973-22.621 3.211-.004.652-.004 1.309-.008 1.98-.027 6.18-.07 12.36-.129 18.54-.031 3.175-.054 6.351-.066 9.527-.012 3.066-.04 6.137-.074 9.207a347.961 347.961 0 0 0-.016 3.5c-.012 11.254-.012 11.254-3.457 16.496l-1.184 1.883c-3.617 4.71-7.843 8.285-12.523 11.887-5.54 4.296-9.168 8.64-11.043 15.48-.45 4.055-.453 8.094-.457 12.172-.012 1.238-.023 2.48-.04 3.719a1773.42 1773.42 0 0 0-.058 10.187c-.011 2.875-.035 5.746-.054 8.617-.32 40.684-.211 81.371-.141 122.055 1.98.496 3.96.988 6 1.5.992 4.3.418 6.773-1.734 10.5-1.918 3.488-3.192 6.676-4.266 10.5-1.594 1.828-1.594 1.828-3 3-2.898-2.418-3.66-4.613-4.5-8.25-1.734.246-3.465.496-5.25.75-.246-.742-.496-1.484-.75-2.25h-1.5a189.365 189.365 0 0 1-.14-3.938l-.079-2.214c.25-2.38.883-3.352 2.469-5.098 1.238.246 2.477.496 3.75.75-.023-.594-.043-1.184-.066-1.797-.817-22.773-.797-45.55-.786-68.336 0-3.918.004-7.836 0-11.754v-5.148c-.003-10.656 0-21.309.004-31.961.004-9.121.004-18.238 0-27.356-.004-10.656-.004-21.308-.004-31.964v-5.102c.004-3.918 0-7.832 0-11.75-.003-4.766-.003-9.531 0-14.297.004-2.422.004-4.847.004-7.273-.004-2.637 0-5.27.004-7.907-.004-.753-.004-1.511-.008-2.293.016-4.89.332-9.699.852-14.562-15.738 5.836-30.77 12.691-45.75 20.25-.871.441-1.742.879-2.64 1.332-11.31 5.73-22.372 11.852-33.36 18.168l-3.91 2.238c-1.781 1.02-3.559 2.04-5.336 3.063-1.27.726-2.535 1.453-3.8 2.18-1.169.671-1.169.671-2.356 1.359l-2.07 1.191-2.028 1.219c-.816.371-1.629.746-2.469 1.129-2.316 2.133-2.367 2.582-2.61 5.586-.03 1.539-.038 3.078-.023 4.617-.011.813-.023 1.621-.03 2.457-.032 2.594-.028 5.184-.024 7.774a1317.14 1317.14 0 0 1-.047 5.269c-.04 4.309-.05 8.613-.047 12.918H2001v3h-34.5v-2.25h-2.25v-24h-12c-12.156-1.617-23.734-6.93-32.25-15.75-.684-.605-.684-.605-1.379-1.227-11.375-10.261-17.023-27.043-18.055-42.003-.02-.582-.043-1.168-.066-1.77-.031-.66-.059-1.324-.09-2.004-.484-21.039 5.512-41.422 20.09-56.969 7.531-7.648 15.688-13.058 25.328-17.668l1.461-.703c5.02-2.324 10.242-4.093 15.461-5.906l.023-1.238c.082-4.395.168-8.79.254-13.188.035-1.62.067-3.246.094-4.867.258-13.578.691-27.137 1.129-40.707h-51V774H1911v-30.75h53.25v-96Zm69.328 118.688-1.277 1.351a330.022 330.022 0 0 0-5.442 6.258c-1.109 1.203-1.109 1.203-2.609 1.953-6.93.246-13.86.496-21 .75V831c34.387-4.324 34.387-4.324 63-22.5 6.629-9.098 7.5-19.074 6.75-30-.914-5.758-2.715-10.215-6.89-14.39-5.118-3.298-10.423-3.989-16.407-3.938l-1.922-.047c-5.633.004-10.297 1.61-14.203 5.813Zm-107.68 100.289c-8.16 8.336-12.222 19.656-14.898 30.773-.262 1.07-.262 1.07-.531 2.16-3.543 16.692-1.938 35.067 6.785 49.95 2.195 3.331 4.629 6.386 7.246 9.39.426.523.855 1.05 1.297 1.59 4.539 5.133 10.527 7.719 16.703 10.41.64.29 1.281.578 1.941.875 4.254 1.594 8.45 1.465 12.926 1.422.992-.004.992-.004 2.008-.012 1.625-.008 3.25-.02 4.875-.035.02-12.86.031-25.719.04-38.578.003-5.973.007-11.945.015-17.918.007-5.223.015-10.442.015-15.664 0-2.75.004-5.504.008-8.254.031-15.707-.281-31.387-.828-47.086-12.852 0-28.723 12.793-37.602 20.977ZM661.734 822.516l2.825-.036c8.324-.003 15.699 1.45 23.191 5.098l1.426.652c2.781 1.32 4.761 2.747 6.824 5.02 1.02.79 1.02.79 2.063 1.594.558.465 1.113.93 1.687 1.406v1.5H702V840l1.34.535c5.523 3.207 9.55 12.102 11.644 17.98 1 4.82.555 7.825-1.734 12.235-2.477 3.023-5.367 4.242-8.86 5.766-13.398 5.828-13.398 5.828-24.14 15.234-1.234 3.367-1.11 6.332.188 9.656 1.09 1.946 1.945 3.133 3.562 4.594v1.5l1.688.469c2.855 1.43 3.69 2.636 5.062 5.531.613 4.57.617 8.957-2.25 12.75-11.578 7.21-25.68 8.969-39.027 6.227A50.226 50.226 0 0 1 642.75 930c-.863-.371-1.727-.742-2.613-1.121-7.547-3.363-7.547-3.363-10.887-5.629v-1.5H627c-2.129-1.906-3.96-3.984-5.766-6.188-1.511-2.074-1.511-2.074-3.234-2.812v-2.25c-.742-.246-1.484-.496-2.25-.75-6.57-9.89-9.406-20.484-9.281-32.25-.008-.813-.016-1.629-.028-2.469.028-7.851 1.516-14.902 5.184-21.86.441-.85.883-1.698 1.336-2.573l1.289-2.348c.395-.719.79-1.441 1.195-2.184.348-.515.696-1.035 1.055-1.566h1.5v-2.25c1.031-1.266 1.031-1.266 2.25-2.25h1.5c.246-.742.496-1.484.75-2.25 1.453-1.64 1.453-1.64 3-3h1.5v-1.5c10.64-7.977 21.738-10.77 34.734-10.734ZM643.5 834.75c-2.52 2.406-3.543 3.773-4.5 7.125 0 3.066.57 4.578 2.25 7.125 2.82 2.563 4.996 2.676 8.691 2.566 3.403-.593 4.711-2.87 6.59-5.52.918-3.034.016-5.448-1.36-8.202-.386-.528-.773-1.051-1.171-1.594h-1.5v-1.5c-4.563-.883-4.563-.883-9 0Zm25.5 3.75-.75.75c-.406 3.59-.527 6.563 1.266 9.75 2.3 1.988 3.937 3.082 7.058 2.918 1.48-.176 2.953-.418 4.426-.668.246-.742.496-1.484.75-2.25.742-.246 1.484-.496 2.25-.75 1.133-3.395 1.332-6.797 0-10.125-.246-.371-.496-.742-.75-1.125h-1.5v-1.5c-4.824-2.41-9.594-1.176-12.75 3Zm-48 18.75c-1.68 2.496-2.29 3.832-2.11 6.844.75 2.652 1.446 4.41 3.282 6.468 2.867 1.473 5.43 1.567 8.578.938 2.344-1.09 3.86-2.309 5.25-4.5.852-3.652.57-6.488-1.266-9.75-2.359-2.04-4.254-2.813-7.312-3.281-2.774.406-4.274 1.508-6.422 3.281Zm-.75 28.5c-1.582 2.73-1.883 5.129-1.5 8.25 1.84 3.613 3.64 5.438 7.5 6.75 4.156 0 6.117-1.754 9-4.5 1.305-2.605 1.2-5.406.75-8.25-1.828-2.32-3.55-3.617-6-5.25-4.238-.48-6.516.215-9.75 3Zm19.523 21.852c-1.039 1.882-1.632 2.964-1.523 5.148 1.86 3.992 3.504 6.555 7.734 8.156 2.926.137 4.715-.765 7.266-2.156 2.332-2.152 2.941-3.203 3.281-6.375-.34-3.168-.691-5.371-3.086-7.578-4.941-3.055-10.468-1.844-13.672 2.805ZM1149 816.75c3.055 1.309 4.656 3.184 6.012 6.188 1.601 5.152 2.023 10.554 2.597 15.898.371 3.375.875 6.719 1.422 10.07a1445.315 1445.315 0 0 1 5.922 40.309c.379 2.844.79 5.68 1.211 8.515.11.739.219 1.48.328 2.243.207 1.41.418 2.816.637 4.222.789 5.453 1.027 10.555-2.066 15.41-4.895 6.438-9.801 9.793-17.61 11.707-9.27.79-9.27.79-13.453-2.062-3.379-3.27-4.348-5.691-4.734-10.266.07-4.683 1.992-8.547 5.015-12.047.649-.558 1.301-1.113 1.969-1.687.996-.953.996-.953 2.016-1.922 3.964-3.21 8.41-4.914 13.492-4.86.61.005 1.215.009 1.84.012.465.008.925.012 1.402.02-.707-4.559-1.41-9.117-2.121-13.68l-.715-4.633c-.117-.742-.23-1.488-.351-2.253-.114-.743-.227-1.485-.348-2.246-.344-2.223-.7-4.446-1.05-6.668-.438-2.766-.84-5.536-1.208-8.31-.09-.624-.176-1.25-.27-1.89a172.13 172.13 0 0 1-.449-3.472c-.394-2.684-.695-3.86-2.836-5.594-2.21-.875-2.914-.824-5.09.043-.585.226-1.175.457-1.78.691l-1.782.762-1.594.668c-1.73.75-3.445 1.539-5.156 2.332l-2.305 1.063c-1.66.765-3.32 1.53-4.98 2.3-2.3 1.063-4.61 2.11-6.918 3.153-5.277 1.886-5.277 1.886-9.047 5.484.066 7.703 1.379 15.363 2.559 22.96.308 1.97.609 3.942.906 5.911.676 4.438 1.36 8.871 2.043 13.309a3551 3551 0 0 1 1.523 9.945l.38 2.422c1.3 8.57.796 13.894-3.614 21.437-4.2 5.473-10.422 8.227-17.149 9.16-5.558.231-9.433-.23-13.921-3.617-3.125-3.254-3.137-6.601-3.059-10.949.547-3.828 2.355-6.207 4.832-9.078l1.125-1.45c3.652-4.245 8.531-6.171 13.875-7.55 1.75-.023 3.5-.027 5.25 0-3.715-27.469-3.715-27.469-7.703-54.902-.098-.63-.192-1.254-.29-1.903-.23-1.504-.46-3.008-.695-4.515-.32-2.48-.464-4.895-.5-7.399l-.058-2.468c.375-3.516 2.031-6.079 4.746-8.313a79.43 79.43 0 0 1 4.078-2.063 126.16 126.16 0 0 0 9.422-5.062c3.59-2.125 7.234-4.031 10.977-5.867 3.68-1.836 7.304-3.774 10.933-5.703.777-.418.777-.418 1.574-.84l1.399-.746 1.367-.719c.508-.27 1.02-.543 1.543-.824 3.254-1.512 6.98-1.172 10.457-.676Zm-8.953 13.313c-2.078 1.207-4.129 2.148-6.375 3-5.578 2.156-10.848 4.976-16.172 7.687-1.672.844-3.344 1.691-5.016 2.531-.683.348-1.367.692-2.07 1.047-1.914.922-1.914.922-3.945 1.703-1.824.637-1.824.637-3.219 2.219-.074 1.613-.074 1.613.188 3.375l.199 1.805c.254 1.726.254 1.726 1.863 3.07.762-.39 1.523-.777 2.309-1.18 9.351-4.75 9.351-4.75 14.191-6.695 4.195-1.688 8.207-3.676 12.23-5.734.477-.246.957-.489 1.45-.743.465-.234.93-.472 1.41-.718 1.426-.688 2.875-1.27 4.348-1.844.765-.36 1.527-.719 2.312-1.086.844-2.535.613-3.574.047-6.14-.145-.676-.293-1.352-.442-2.048l-.355-1.562c-1.07-.063-1.07-.063-2.953 1.313ZM1856.203 661.313a72.986 72.986 0 0 1 3.047 2.437c.477.387.953.773 1.445 1.168 5.16 4.61 7.559 10.441 8.258 17.254.367 9.402-2.36 15.96-8.484 23.015-6.14 6.516-12 9.547-21.14 9.844-9.087-.308-15.763-4.14-21.938-10.64-6.489-7.52-7.465-15.18-6.891-24.891 1.29-7.883 5.426-13.777 11.82-18.422 9.602-6.168 24.278-5.875 33.883.235Zm290.883 1.14c5.582 4.344 9.305 10.063 10.664 17.047.781 10.035-1.215 17.14-7.344 25.113-5.191 5.91-11.367 9.649-19.289 10.29-8.097.144-14.547-1.403-20.617-6.903-.52-.457-1.035-.918-1.57-1.39-4.625-4.329-8.524-9.458-9.063-15.958-.449-16.707-.449-16.707 5.57-24.09 11.09-11.652 28.055-13.066 41.649-4.109ZM1551.75 1179c40.25 0 40.25 0 45.75 4.5 4.031 4.066 5.469 7.656 5.531 13.36-.09 5.816-1.304 9.488-5.343 13.64-.56.496-1.114.988-1.688 1.5.39.2.777.402 1.18.61 4.515 2.535 7.453 5.585 9.03 10.605 1.02 5.402.595 10.887-1.96 15.785-3.766 5.48-8.008 8.66-14.492 10.152-1.965.34-3.75.438-5.738.434h-2.215l-2.297-.012c-1.055-.004-1.055-.004-2.133-.004-2.621-.004-5.238-.015-7.86-.023l-17.765-.047V1179Zm10.5 9v20.25c3.094.07 6.188.129 9.285.164 1.047.016 2.098.035 3.149.063 8.484.218 8.484.218 16.066-3.227 2.254-3.484 2.61-6.43 1.98-10.438-.777-2.53-2.148-3.75-4.23-5.312-3.078-1.54-5.617-1.676-9.04-1.648-.491.003-.987.007-1.495.007-1.567.008-3.133.028-4.7.047-1.066.008-2.132.016-3.199.02-2.605.015-5.21.047-7.816.074Zm0 29.25v23.25c3.414.07 6.828.129 10.246.164 1.156.016 2.316.035 3.477.063 8.976.324 8.976.324 17.027-3.227 2.91-3.32 3.492-6.613 3.281-10.977-.441-2.785-1.343-4.238-3.281-6.273-5.777-4.012-12.016-3.34-18.75-3.188-1.164.016-2.328.028-3.496.04-2.836.03-5.668.09-8.504.148Zm-433.5-38.25c40.398 0 40.398 0 46.5 5.25 4.016 5.39 4.984 9.82 4.5 16.5-.926 4.984-3.477 7.59-7.5 10.5l1.371.828c4.586 2.883 7.375 5.164 9.129 10.422.64 8.05.402 14.297-4.824 20.848-4.067 4.097-8.004 4.328-13.926 6.152h-35.25V1179Zm9.75 9v20.25c3.23.05 6.457.098 9.688.125 1.097.012 2.19.023 3.289.043 1.582.027 3.164.043 4.75.05 1.421.02 1.421.02 2.878.036 3.684-.356 6.118-1.64 8.926-4.004 1.867-3.445 1.871-6.672 1.219-10.5-1.223-2.535-2.89-4.059-5.418-5.355-2.594-.801-4.82-.813-7.535-.793-.512.003-1.02.007-1.547.007-1.621.008-3.238.028-4.86.047-1.1.008-2.206.016-3.308.02-2.695.015-5.387.047-8.082.074Zm0 29.25v23.25c3.414.07 6.828.129 10.246.164 1.156.016 2.316.035 3.477.063 8.965.308 8.965.308 17.027-3.227 3.094-3.254 4.027-5.887 3.96-10.402-.374-2.852-1.519-4.52-3.21-6.848-3.969-2.977-7.629-3.11-12.457-3.074-.547.004-1.09.004-1.652.004-1.735.004-3.47.015-5.204.023l-3.535.012c-2.886.008-5.77.02-8.652.035Zm-175.965-38.324c1.047.008 2.09.015 3.137.027.8.004.8.004 1.617.012 1.32.008 2.64.02 3.961.035 2.668 7.227 5.332 14.453 7.992 21.684 1.465 3.984 2.934 7.964 4.403 11.945 1.644 4.441 3.28 8.883 4.914 13.328.648 1.758 1.296 3.516 1.949 5.273.918 2.48 1.832 4.965 2.742 7.45.281.746.559 1.492.844 2.261.254.692.504 1.38.765 2.09.22.602.442 1.2.672 1.82.469 1.649.469 1.649.469 4.649h-10.5c-2.898-6.703-5.172-13.27-7.5-20.25h-26.25c-3.71 10.023-3.71 10.023-7.5 20.25h-10.5c.523-3.14.969-5.387 2.059-8.254.27-.715.535-1.43.812-2.164.297-.766.59-1.531.89-2.32.305-.809.614-1.617.927-2.45.996-2.624 2-5.25 3-7.874l2.05-5.399c1.364-3.586 2.727-7.172 4.094-10.758 1.445-3.793 2.89-7.593 4.332-11.39.906-2.399 1.82-4.797 2.73-7.196.415-1.086.825-2.172 1.239-3.257.558-1.481 1.125-2.958 1.687-4.434.309-.813.617-1.621.938-2.457 1.047-2.535 1.047-2.535 4.027-2.621Zm1.965 12.824c-1.39 3.816-2.781 7.633-4.164 11.453-.473 1.3-.945 2.598-1.422 3.899-.68 1.863-1.355 3.73-2.031 5.593-.32.875-.32.875-.645 1.77-1.097 2.82-1.097 2.82-1.488 5.785H975c-1.25-3.82-2.504-7.637-3.762-11.453-.43-1.3-.855-2.598-1.281-3.899-.61-1.867-1.227-3.73-1.84-5.593l-.574-1.77c-1.031-3.176-1.031-3.176-3.043-5.785Zm885-12.75h9v70.5h-9c-.246-1.484-.496-2.969-.75-4.5-.336.309-.672.613-1.016.93-.453.406-.906.808-1.375 1.226-.445.399-.886.801-1.343 1.211-4.868 3.637-10.739 3.13-16.516 2.633-4.152-1.16-6.922-3.527-9.75-6.75l-1.547-1.594c-5.2-7.715-5.355-16.398-4.453-25.406 1.32-6.496 4.754-13.11 10.078-17.203 5.266-3.336 11.242-3.895 17.27-2.672 4.203 1.23 5.246 2.219 8.652 5.625.246-7.922.496-15.84.75-24Zm-23.484 30.938c-4.008 6.53-4.364 13.316-3.516 20.812 1.125 4.32 3.441 8.89 7.32 11.328 4.18 1.668 9.18 1.3 13.258-.406 5.2-5.2 6.52-10.73 6.61-17.906-.012-6.559-1.247-11.063-5.786-15.957-2.328-2.137-4.308-2.493-7.386-2.84-4.29.437-7.414 1.965-10.5 4.968ZM1484.25 1179h9v70.5h-9c-.246-1.238-.496-2.477-.75-3.75l-1.398.957c-.606.41-1.211.824-1.836 1.246-.903.613-.903.613-1.82 1.238-4.516 2.817-10.071 2.184-15.196 1.809-5.367-1.383-9.57-5.473-12.383-10.125-4.156-8.004-4.898-18.234-2.523-27 2.418-6.52 5.734-11.922 11.906-15.375 5.953-2.426 11.926-2.059 17.922-.035 1.578.785 1.578.785 5.328 3.785.246-7.672.496-15.344.75-23.25Zm-23.484 30.89c-4.09 6.82-4.563 14.391-3.137 22.176 1.219 4.118 3.246 7.688 6.969 10.036 3.761 1.476 8.53 1.457 12.3.02 3.872-2.497 5.625-6.18 7.04-10.446 1.152-6.215 1.488-14.942-1.938-20.426-3.148-3.457-5.875-5.766-10.64-6.234-4.34.355-7.438 1.89-10.594 4.875Zm439.594-13.124c.898.004.898.004 1.816.011 6.703.133 11.508 1.407 16.324 6.223 2.914 4.305 2.352 10.012 2.324 14.992-.004.711-.004 1.422-.004 2.153-.004 2.253-.015 4.507-.023 6.761l-.012 4.602c-.008 3.746-.02 7.496-.035 11.242h5.25c.02 1.11.035 2.219.047 3.328.008.617.015 1.235.027 1.871-.074 1.551-.074 1.551-.824 2.301-8.285 1.043-8.285 1.043-11.398-1.172-1.094-1.312-2.02-2.59-2.852-4.078-.434.309-.871.613-1.32.93-.582.406-1.168.808-1.774 1.226-.574.399-1.148.801-1.742 1.211-5.562 3.285-11.371 3.172-17.664 2.633-5.164-1.379-8.094-4.66-10.734-9.188-1.317-5.273-1.051-10.812 1.734-15.562 6.063-6.668 15.2-7.27 23.668-8.223.7-.078 1.398-.16 2.117-.246.63-.066 1.262-.133 1.91-.203 1.715-.215 1.715-.215 3.055-1.828.238-2.945.395-5.059-.75-7.781-3.39-2.754-7.266-2.871-11.438-2.532-2.488.27-4.468.653-6.562 2.063-1 1.617-1 1.617-1.688 3.469-.433 1.082-.867 2.164-1.312 3.281h-8.25c-.336-4.684.078-8.188 3-12 5.09-4.277 10.61-5.531 17.11-5.484Zm8.015 27.921c-3.656 1.13-7.36 1.56-11.148 2.008-4.25.61-6.442 1.746-9.477 4.805-1.176 2.355-1.016 4.152-.75 6.75 2.168 2.785 4.156 4.215 7.5 5.25 4.996-.191 9.52-1.492 13.5-4.5 3.813-4.594 3.313-9.23 3-15-.965-.043-.965-.043-2.625.688Zm-670.687-23.531c5.488 4.41 7.37 9.223 8.59 16.016.312 3.262.222 6.55.222 9.828H1209c2 8.484 2 8.484 7.313 14.438 5.292 1.765 9.453 1.535 14.437-.938 3.02-2.441 3.766-3.793 5.25-7.5h9.75c-1.05 6.313-4.066 10.898-9.14 14.836-5.997 4.031-13.126 3.926-20.11 3.164-2.582-.625-4.555-1.523-6.75-3-.465-.293-.93-.582-1.41-.883-4.645-3.394-7.352-8.96-8.828-14.43-1.399-10.394-.078-19.593 5.832-28.28 8.215-9.344 22.394-10.075 32.343-3.25Zm-25.172 8.922c-2.23 3.39-2.766 5.285-2.766 9.422h27c-1.387-7.523-1.387-7.523-6-12.75-6.16-3.934-13.566-1.59-18.234 3.328ZM2050.5 1200c5.758 3.86 8.098 8.398 9.75 15v12h-36.75c1.883 8.227 1.883 8.227 6.984 14.11 4.036 1.78 7.641 1.949 11.825.734 4.195-1.723 6.457-4.7 8.191-8.844h9.75c-1.906 6.781-4.738 11.656-10.57 15.742-6.36 3.363-14.88 3.434-21.766 1.656-5.965-2.695-10.402-7.613-13.039-13.554-2.496-7.864-2.531-18.856 1.125-26.344 3.402-6.215 7.594-10.469 14.32-12.953 6.926-1.738 13.996-1.176 20.18 2.453Zm-24.527 11.023c-1.465 2.41-1.465 2.41-2.473 8.477h27.75c-1.621-7.781-1.621-7.781-6.844-13.031-7.008-3.602-13.472-.809-18.433 4.554Zm-664.013-8.347c6.099 6.36 6.474 14.418 6.395 22.773-.289 9.106-3.097 15.668-9.636 22.035-4.782 3.075-9.16 3.883-14.719 3.797-.566.008-1.133.016-1.719.028-6.285-.036-11.082-1.946-15.664-6.258-5.836-6.613-6.93-15.23-6.523-23.77.836-7.957 3.531-15.047 9.683-20.347 9.899-7.246 22.805-5.809 32.184 1.742Zm-27.57 6.137c-4.14 6.152-5.242 12.398-4.64 19.687 1.055 5.273 2.633 10.234 7.266 13.36 4.824 1.73 9.105 2.312 13.894.19 3.95-2.359 5.664-5.878 6.914-10.136 1.668-7.5 1.848-14.91-2.012-21.742-2.183-3.145-4.398-4.41-8.14-5.293-5.406-.902-9.34.082-13.281 3.934Zm326.81-7.853c5.28 4.09 7.933 9.642 8.886 16.177.664 9.554-.336 19.433-6.586 27.113-4.117 4.273-8.57 6.742-14.578 7.047-1.14.008-2.281 0-3.422-.016-.566.008-1.133.016-1.719.028-5.761-.032-10.73-1.637-15.027-5.551-7.059-8.492-7.094-18.067-6.504-28.508.95-6.629 4.355-12.465 9.469-16.781 8.996-6.14 20.64-5.367 29.48.492Zm-24.493 6.962c-3.992 4.71-5.437 10.789-5.738 16.875.601 6.305 1.84 11.43 6.367 16.055 3.148 2.558 6.238 2.793 10.133 2.507 3.746-.554 5.976-1.773 8.625-4.5 4.511-6.77 5.316-14.937 3.89-22.828-1.039-4.191-3.12-7.148-6.375-9.937-5.777-2.309-12.101-2.524-16.902 1.828Zm-375.957-10.172h9.75a228.7 228.7 0 0 1 5.59 15.125l.695 2.086c.719 2.168 1.434 4.336 2.152 6.508l1.477 4.449c1.2 3.61 2.395 7.223 3.586 10.832.254-.758.508-1.52.766-2.3 1.57-4.704 3.136-9.41 4.707-14.114.195-.594.394-1.184.597-1.793.395-1.191.793-2.379 1.192-3.57.953-2.864 1.906-5.727 2.843-8.594.172-.524.344-1.047.524-1.586l1.394-4.258c.727-2.035.727-2.035 1.477-2.785 1.64-.055 3.281-.063 4.922-.047 1.348.012 1.348.012 2.723.02.695.007 1.39.02 2.105.027-.43 3.797-1.285 7.184-2.613 10.773-.188.524-.38 1.043-.574 1.582a805.107 805.107 0 0 1-1.876 5.13c-.437 1.199-.874 2.398-1.312 3.593a2248.2 2248.2 0 0 1-4.125 11.172c-.223.598-.441 1.195-.672 1.809-1.281 3.453-2.57 6.902-3.871 10.347-.402 1.067-.8 2.13-1.2 3.196-7.284 19.441-7.284 19.441-12.257 23.648-4.445 1.71-8.922 2.277-13.5.75v-9c1.035.2 2.074.402 3.14.61 2.81.304 3.344.324 5.766-1.36 2.793-3.941 4.196-6.828 3.48-11.703-.804-3.735-2.183-7.285-3.495-10.867-.313-.86-.621-1.72-.942-2.606a2855.1 2855.1 0 0 0-2.98-8.199l-1.992-5.512c-1.223-3.375-2.446-6.754-3.676-10.129-.266-.726-.528-1.457-.801-2.207a291.176 291.176 0 0 0-2.082-5.406c-.918-2.621-.918-2.621-.918-5.621Zm836.953-1.031c.57-.008 1.14-.016 1.727-.028 5.644.032 10.722 1.461 14.82 5.559 2.648 3.824 3.426 6.633 3.75 11.25h-9c-.355-.945-.71-1.887-1.078-2.86-1.293-2.558-2.32-3.675-5.016-4.687-3.722-.953-7.441-.969-11.156.047-1.715.934-1.715.934-3 2.25-.563 2.594-.563 2.594 0 5.25 2.5 2.426 4.707 3.492 8.059 4.336.816.215 1.628.426 2.464.648.844.211 1.688.422 2.555.641 12.637 3.188 12.637 3.188 16.922 9.375 1.563 4.691 1.29 9.164-.703 13.688-2.57 4.578-5.996 7.05-10.95 8.69-6.726 1.517-15.132 1.556-21.542-1.276-4.739-3.082-7.32-7.528-8.805-12.852V1233h9c.434 1.066.867 2.133 1.313 3.234 1.175 2.641 2.011 4.426 4.687 5.766 5.371 1.594 10.34 1.262 15.305-1.3 1.492-1.184 2.05-2.165 2.695-3.95-.234-2.762-.234-2.762-.75-5.25-3.816-1.168-7.637-2.3-11.492-3.32l-2.008-.543a387.765 387.765 0 0 0-4.055-1.067c-5.117-1.402-9.195-3.144-12.398-7.586-1.45-4.52-1.555-8.843.422-13.218 4.047-7.047 10.625-9.164 18.234-9.047Zm-308.953 2.531c4.16 3.79 5.691 8.586 6.195 14.145.063 2.32.059 4.632.024 6.957-.004.835-.004 1.675-.008 2.539-.012 2.652-.043 5.3-.07 7.953-.012 1.808-.024 3.617-.032 5.426-.023 4.41-.062 8.82-.109 13.23H1785a905.348 905.348 0 0 1-.02-3.371c-.03-4.133-.082-8.27-.136-12.402-.02-1.79-.035-3.579-.047-5.368-.016-2.57-.05-5.144-.09-7.718 0-.797 0-1.594-.004-2.414-.09-4.547-.414-7.266-3.453-10.727-2.566-1.945-5.117-1.766-8.25-1.5-4.273 1.328-6.473 3.066-9 6.75-1.719 3.98-1.758 7.73-1.813 11.992-.011.711-.027 1.422-.042 2.153-.043 2.253-.079 4.507-.114 6.761-.027 1.535-.058 3.067-.086 4.602-.074 3.746-.136 7.492-.195 11.242h-9v-51.75h9c.246 1.734.496 3.465.75 5.25.633-.574 1.27-1.145 1.922-1.734 6.851-5.57 16.52-6.274 24.328-2.016Zm-365.25 0c3.918 3.66 5.7 8.016 6.195 13.355.063 2.368.059 4.72.024 7.086-.004.856-.004 1.711-.008 2.594-.012 2.711-.043 5.426-.07 8.137-.012 1.848-.024 3.695-.032 5.543-.023 4.512-.062 9.023-.109 13.535h-9.75a902.71 902.71 0 0 1-.031-3.371c-.047-4.133-.102-8.27-.164-12.402-.028-1.79-.047-3.579-.067-5.368a995.78 995.78 0 0 0-.105-7.718l-.012-2.414c-.082-4.102-.238-7.223-2.621-10.727-2.91-1.777-5.652-1.79-9-1.5-4.27 1.324-6.504 3.043-9 6.75-1.527 4.25-1.75 8.164-1.813 12.652-.011.692-.027 1.383-.042 2.098-.043 2.191-.079 4.387-.114 6.578-.027 1.492-.058 2.988-.086 4.48a2555.29 2555.29 0 0 0-.195 10.942h-9v-51.75h9c.246 1.734.496 3.465.75 5.25.617-.574 1.238-1.145 1.875-1.734 6.809-5.559 16.676-6.141 24.375-2.016Zm265.5-1.5h9l.047 3.223c.055 3.957.121 7.914.191 11.87.028 1.708.055 3.419.078 5.13.036 2.465.079 4.925.121 7.39.012.758.02 1.52.028 2.305.043 6.797.043 6.797 2.957 12.738 3.879 1.79 7.363 1.953 11.437.75 3.723-2.191 5.594-4.82 6.891-8.906.793-3.84.91-7.598.988-11.5l.047-2c.047-2.094.094-4.188.137-6.281.031-1.426.066-2.852.098-4.274.082-3.48.156-6.965.23-10.445h9v51.75h-9c-.246-1.484-.496-2.969-.75-4.5-.617.574-1.238 1.145-1.875 1.734-4.516 3.704-9.031 4.676-14.82 4.473-5.403-.547-8.938-1.953-12.41-6.2-2.918-4.925-2.59-9.917-2.543-15.468.003-.91.007-1.82.007-2.758.008-2.894.028-5.793.047-8.687.008-1.965.016-3.934.02-5.899.015-4.816.043-9.632.074-14.445Zm-633-13.5h9.75v13.5h8.25v8.25h-8.25c.09 4.898.18 9.8.277 14.7.035 1.667.067 3.335.094 5.003l.14 7.176c.012.75.028 1.504.04 2.277l.047 2.09c.015.918.015.918.035 1.856-.035 1.41-.035 1.41.867 2.148 2.242.344 4.492.527 6.75.75v7.5c-2.102 1.05-3.89.906-6.234.938-1.274.027-1.274.027-2.57.058-2.692-.27-4.044-.894-6.196-2.496-2.57-3.484-3.098-6.84-3.086-11.094v-2.09l.012-2.23c.004-.758.004-1.52.004-2.305.004-2.422.015-4.843.023-7.265l.012-4.934c.008-4.027.02-8.055.035-12.082h-6.75v-8.25h6.75v-13.5Zm912.75 12.75v9.75c-2.113.277-2.113.277-4.266.563-3.605.609-6.015 1.07-8.484 3.937-2.594 4.063-2.602 7.652-2.633 12.32-.015.746-.027 1.489-.043 2.254-.039 2.36-.066 4.723-.09 7.082a2432.242 2432.242 0 0 0-.234 16.594h-9.75v-51.75h9c.246 1.98.496 3.96.75 6l1.016-1.094c4.828-5.047 7.82-5.863 14.734-5.656Zm-930.75 0v9.75c-1.004.063-2.012.125-3.047.188-3.574.421-6.2 1.207-8.953 3.562-3.11 4.328-3.45 8.621-3.457 13.805-.012.722-.023 1.449-.04 2.195-.034 2.29-.05 4.582-.066 6.875-.019 1.563-.042 3.125-.066 4.688a1556.88 1556.88 0 0 0-.121 11.437h-9v-51.75h8.25c.246 1.98.496 3.96.75 6 .398-.363.797-.723 1.207-1.094l1.606-1.437c.523-.469 1.042-.942 1.582-1.422 3.824-3.086 6.558-2.938 11.355-2.797ZM711.75 890.25l1.172 2.438c1.816 3.195 3.773 4.277 7.078 5.812.996.27 1.992.523 3 .75-.922 6.281-2.395 12.29-5.25 18h-1.5v2.25c-3.316 4.21-9.953 6.434-15 7.5-2.578.094-2.578.094-4.5 0 .355-.664.71-1.332 1.078-2.016 1.645-3.484 2.012-6.675 2.242-10.492.059-.804.114-1.613.168-2.445.114-1.68.219-3.36.317-5.04.336-4.765.996-8.636 2.945-13.007h1.5c.246-.742.496-1.484.75-2.25 2.043-.828 3.781-1.5 6-1.5Zm1273.5 308.25h9v51h-9v-51Zm0 0" style="stroke:none;fill-rule:nonzero;fill:#fff;fill-opacity:1"/><path d="M1149 816.75c3.05 1.332 4.652 3.176 6.012 6.188 1.601 5.152 2.023 10.554 2.597 15.898.371 3.375.875 6.719 1.422 10.07a1445.315 1445.315 0 0 1 5.922 40.309c.379 2.844.79 5.68 1.211 8.515.11.739.219 1.48.328 2.243.207 1.41.418 2.816.637 4.222.789 5.453 1.027 10.555-2.066 15.41-4.895 6.438-9.801 9.793-17.61 11.707-9.27.79-9.27.79-13.453-2.062-3.379-3.27-4.348-5.691-4.734-10.266.07-4.683 1.992-8.547 5.015-12.047.649-.558 1.301-1.113 1.969-1.687.996-.953.996-.953 2.016-1.922 5.011-4.062 10.425-5.234 16.734-4.828-.11-.516-.215-1.035-.328-1.566-.902-4.575-1.324-8.774-1.172-13.434h.75c1.723 10.95 1.723 10.95 1.5 16.5-.953.125-.953.125-1.922.25-8.816 1.23-13.976 2.52-19.828 9.5-2.953 4.059-2.848 8.66-2.25 13.5 1.27 2.723 2.027 4.023 4.719 5.344 5.738 1.855 11.84.949 17.324-1.301 4.969-2.648 8.762-6.324 11.289-11.356 1.27-5.117.152-10.699-.52-15.843l-.3-2.36c-1.344-10.289-2.965-20.535-4.625-30.773a581.391 581.391 0 0 1-2.762-19.086c-.71-5.54-1.45-11.074-2.297-16.594-.086-.582-.172-1.164-.262-1.761-.605-3.875-1.222-7.008-3.816-10.004-3.262-1.836-6.09-1.848-9.75-1.266-1.71.684-3.23 1.46-4.805 2.418-.394.191-.789.383-1.195.582-.496-.246-.988-.496-1.5-.75 5.031-3.559 9.602-4.914 15.75-3.75Zm0 0" style="stroke:none;fill-rule:nonzero;fill:#fff;fill-opacity:1"/><path d="M1146.75 848.25c3.863 3.379 4 8.035 4.688 12.844l.39 2.449a83.875 83.875 0 0 1 .922 15.457h-.75c-.16-1.094-.16-1.094-.32-2.21-.395-2.724-.797-5.438-1.2-8.157l-.515-3.528c-.246-1.69-.496-3.382-.746-5.074a153.99 153.99 0 0 1-.227-1.582c-.648-5.11-.648-5.11-3.64-8.988-1.977-.57-2.829-.336-4.743.383-.593.222-1.187.441-1.8.672a193.402 193.402 0 0 0-8.559 3.734c-1.14.523-1.14.523-2.305 1.063-1.66.765-3.32 1.53-4.98 2.3-2.3 1.063-4.61 2.11-6.918 3.153-5.277 1.886-5.277 1.886-9.047 5.484.066 7.703 1.379 15.363 2.559 22.96.308 1.97.609 3.942.906 5.911.676 4.438 1.36 8.871 2.043 13.309a3551 3551 0 0 1 1.523 9.945l.38 2.422c.624 4.11 1.116 8.043.839 12.203l-1.5 1.5a895.24 895.24 0 0 1-.234-2.441c-.95-9.532-2.2-19.012-3.54-28.493-.355-2.507-.703-5.015-1.05-7.523-.227-1.621-.457-3.238-.684-4.86l-.308-2.23a180.187 180.187 0 0 0-2.121-12.074c-.458-2.39-.594-4.73-.641-7.16-.031-.871-.059-1.742-.09-2.64.418-2.329.418-2.329 2.094-4.024 4.734-2.98 9.738-5.164 14.945-7.18 2.66-1.094 5.25-2.316 7.848-3.547 11.902-5.578 11.902-5.578 16.781-4.078ZM1153.5 883.5h.75c1.723 10.95 1.723 10.95 1.5 16.5-.633.082-1.27.164-1.922.25-8.816 1.23-13.976 2.52-19.828 9.5-2.953 4.059-2.848 8.66-2.25 13.5 1.27 2.723 2.027 4.023 4.719 5.344 5.738 1.855 11.84.949 17.324-1.301 5.535-2.95 9.61-7.098 11.707-13.043.266-.996.52-1.996.75-3h1.5c-.82 7.262-4.746 11.238-10.16 15.89-5.402 3.993-12.512 5-19.09 4.36-3.953-1.367-5.879-3.43-8.25-6.75-1.438-3.313-1.258-7.348-.21-10.758 1.5-3.633 3.19-6.152 6.21-8.742l2.016-1.922c5.011-4.062 10.425-5.234 16.734-4.828-.11-.516-.215-1.035-.328-1.566-.902-4.575-1.324-8.774-1.172-13.434ZM1985.25 1179h9v10.5h-9V1179ZM1144.5 828.75l.75 9.75c-2.293 1.375-4.36 2.598-6.746 3.703-.543.254-1.086.508-1.645.766l-1.687.781c-1.11.516-2.219 1.031-3.324 1.547-.793.367-.793.367-1.602.738-1.355.649-2.684 1.36-4.008 2.074-1.988.891-1.988.891-4.238.141.863-.43 1.727-.86 2.613-1.305a984.97 984.97 0 0 0 6.492-3.273c1.028-.524 2.055-1.043 3.082-1.563.52-.265 1.04-.53 1.579-.808 3.957-1.996 3.957-1.996 5.855-2.364l1.379-.437c.824-2.473.652-3.305.047-5.766-.145-.605-.293-1.21-.442-1.836l-.355-1.398c-.71.434-1.422.867-2.156 1.313-2.094 1.199-4.168 2.144-6.422 3-3.465 1.34-6.762 2.921-10.078 4.593l-1.555.782a380.194 380.194 0 0 0-7.203 3.726c-.793.414-1.582.832-2.399 1.258-1.039.558-1.039.558-2.097 1.129-2.024.77-2.856.722-4.84-.051a1306.225 1306.225 0 0 1 20.438-10.125c.68-.332 1.355-.668 2.054-1.012.64-.308 1.281-.617 1.942-.933l1.718-.836c1.598-.594 1.598-.594 4.598-.594v-1.5c4.875-2.344 4.875-2.344 8.25-1.5ZM1098.75 890.25h.75c.54 3.547 1.07 7.098 1.602 10.648.18 1.207.363 2.41.546 3.618.262 1.738.524 3.476.782 5.218l.25 1.618c.437 2.992.652 5.875.57 8.898-.68.066-1.36.129-2.059.195-9.05 1.043-14.379 3.543-20.441 10.305 0-2.766.531-3.188 2.39-5.156 5.227-5.043 11.477-6.953 18.61-6.844-.09-.625-.184-1.246-.273-1.89-.34-2.344-.676-4.688-1.008-7.032-.145-1.008-.29-2.02-.438-3.027-.808-5.559-1.48-10.926-1.281-16.551Zm0 0" style="stroke:none;fill-rule:nonzero;fill:#fff;fill-opacity:1"/><path d="M1153.5 883.5h.75c1.723 10.95 1.723 10.95 1.5 16.5-.633.082-1.27.164-1.922.25-8.765 1.223-14.05 2.492-19.828 9.5-1.723 2.875-2.762 5.805-3.75 9-1.145-3.277-.113-5.11 1.324-8.117 1.258-2.219 2.746-3.727 4.676-5.383l2.016-1.922c5.011-4.062 10.425-5.234 16.734-4.828-.11-.516-.215-1.035-.328-1.566-.902-4.575-1.324-8.774-1.172-13.434ZM1130.25 834.75c-4.64 3.125-9.484 5.453-14.563 7.766-2.671 1.187-2.671 1.187-5.093 2.562-2.094.922-2.094.922-3.875.688-.403-.172-.805-.34-1.219-.516.746-.371 1.488-.746 2.258-1.129.484-.242.972-.488 1.476-.738 1.079-.54 2.16-1.078 3.243-1.617a447.841 447.841 0 0 0 8.078-4.11c.472-.246.945-.488 1.433-.742a746.41 746.41 0 0 0 3.918-2.05c2.094-.864 2.094-.864 4.344-.114ZM1163.25 884.25h.75c1.723 8.969 2.902 17.906 3.75 27h-1.5c-1.129-4.625-1.875-9.188-2.344-13.922l-.195-1.816a94.262 94.262 0 0 1-.461-11.262Zm0 0" style="stroke:none;fill-rule:nonzero;fill:#fff;fill-opacity:1"/><path d="M1166.25 911.25h1.5c-.82 7.281-4.773 11.3-10.234 15.934-1.676 1.25-2.727 1.765-4.766 2.066v-1.5c1.344-.973 1.344-.973 3.14-2.063 5.778-3.769 8.11-8.078 10.36-14.437ZM1103.25 846c.742.246 1.484.496 2.25.75l-1.5 1.5c-.016 1.664-.016 1.664.281 3.469.082.613.168 1.226.25 1.86.074.468.145.937.219 1.421 3.297 0 5.703-1.57 8.629-3.004l1.871-.746c.496.246.988.496 1.5.75a620.619 620.619 0 0 1-5.063 2.625c-.476.25-.953.5-1.44.758-2.587 1.32-4.032 1.867-6.997 1.867-1.89-7.176-1.89-7.176-.75-10.5l.75-.75ZM1143.75 900c.496.246.988.496 1.5.75l-1.266.746c-6.425 4.008-11.41 8.547-13.453 16.016-.093.406-.187.816-.281 1.238-1.145-3.277-.113-5.11 1.324-8.117 1.258-2.219 2.746-3.727 4.676-5.383l1.133-1.004c1.98-1.723 3.875-3.355 6.367-4.246ZM1149 816.75c2.758 1.465 4.824 3.11 5.758 6.152.078.446.16.891.242 1.348l-2.531-2.156-1.422-1.211a57.423 57.423 0 0 1-2.797-2.633c-4.672-.746-8.297-.023-12.305 2.418-.394.191-.789.383-1.195.582-.496-.246-.988-.496-1.5-.75 5.004-3.54 9.629-4.965 15.75-3.75ZM1113 934.5c.5 1.29.5 1.29.75 3-1.8 3.844-4.578 7.566-8.25 9.75-.742-.246-1.484-.496-2.25-.75.39-.3.777-.602 1.18-.91 3.98-3.246 6.382-6.453 8.57-11.09Zm0 0" style="stroke:none;fill-rule:nonzero;fill:#fff;fill-opacity:1"/><path d="M1146.75 816.75c3.262.375 5.195 2.297 7.5 4.5.508 1.625.508 1.625.75 3-2.855-2.406-5.66-4.805-8.25-7.5ZM1166.25 911.25h1.5a181.303 181.303 0 0 1-.61 3.234l-.343 1.82c-.606 1.872-1.313 2.688-2.797 3.946.45-3.145 1.18-6.008 2.25-9ZM1103.25 846c.742.246 1.484.496 2.25.75l-1.5 1.5a87.95 87.95 0 0 0-.75 5.25c-1.188-1.887-1.527-2.758-1.266-5.016.516-1.734.516-1.734 1.266-2.484ZM1108.5 942c.246.742.496 1.484.75 2.25-1.734 1.547-1.734 1.547-3.75 3-.742-.246-1.484-.496-2.25-.75 1.734-1.484 3.465-2.969 5.25-4.5ZM1765.5 924.75c2.152.43 2.895.645 4.5 2.25-.246.742-.496 1.484-.75 2.25a79.272 79.272 0 0 1-3.75-3v-1.5Zm0 0" style="stroke:none;fill-rule:nonzero;fill:#fff;fill-opacity:1"/></svg>
