<svg xmlns="http://www.w3.org/2000/svg" viewBox="0 0 859.18 552"><defs><style>.cls-1{fill:#4fc3f7}.cls-2{fill:#fff}</style></defs><g id="Layer_2" data-name="Layer 2"><g id="Layer_1-2" data-name="Layer 1"><path d="M429.48 335.32h-58.59c-3.83 0-3.93 0-3.81-3.8a81.11 81.11 0 0 0-4.59-30.65 114.38 114.38 0 0 0-9.95-20.79 172.45 172.45 0 0 0-20.63-27.89c-4.33-4.64-8.76-9.19-12.84-14.06a149.13 149.13 0 0 1-15.5-22.23 145.48 145.48 0 0 1-16.22-44.29 149.57 149.57 0 0 1-2.29-19.12 141 141 0 0 1 6.58-51.87 143.14 143.14 0 0 1 19.7-39.46A149.06 149.06 0 0 1 332.83 37a140.38 140.38 0 0 1 28.57-20 143 143 0 0 1 44.9-15.27 113 113 0 0 1 18-1.71c6.91 0 13.82-.19 20.69.6a147.3 147.3 0 0 1 25 4.94 142.62 142.62 0 0 1 23.28 9 148.55 148.55 0 0 1 32.86 22.17 146.33 146.33 0 0 1 30.86 39A143.61 143.61 0 0 1 572 118a140.83 140.83 0 0 1 2.19 35.31 145.2 145.2 0 0 1-35.31 86.34c-3.71 4.25-7.58 8.33-11.48 12.4a147.92 147.92 0 0 0-25.78 36.38 89.9 89.9 0 0 0-8.53 26.16 49.76 49.76 0 0 0-.74 7.81v9.53c0 3.18-.17 3.4-3.32 3.43h-59.55ZM383.26 392h-2.14c-1.73.1-2.06.37-2.08 2.16q-.06 7.62 0 15.24c0 1.75.36 2 2.13 2.11h17.15a2.82 2.82 0 0 1 3 1.78c1.89 4.38 5.37 7.18 9.45 9.35a40.64 40.64 0 0 0 15.5 4.25 42 42 0 0 0 21.38-3.37c4.64-2.05 8.76-4.92 10.95-9.76a3.43 3.43 0 0 1 3.67-2.28c5 .1 10 .05 15 0 2.49 0 2.74-.26 2.75-2.73v-13.09c0-3.71 0-3.72-3.68-3.72h-93.1Zm81.13-31.39h22.86c3.08 0 3.16-.09 3.17-3.25v-12.14c0-4.05 0-4.16-4.25-4.16h-114.3c-2.69.05-2.87.2-2.89 2.82v13.09c0 3.64 0 3.64 3.73 3.64h91.68ZM458 386.25h24c2.87 0 3.09-.23 3.1-3.15v-12.38c0-4.33 0-4.34-4.3-4.34H376.85c-2.27.09-2.61.38-2.63 2.67v13.33c0 3.83 0 3.87 3.83 3.87h80Zm-9-284.09a42.08 42.08 0 0 1 2.89-8.81 113.39 113.39 0 0 1 10.25-17.14c2.44-3.43 4.85-6.89 6.05-11 .68-2.33.16-4-1.57-5.28a4.92 4.92 0 0 0-5.59 0 26.65 26.65 0 0 0-3.51 2.85c-5.73 5.29-9.88 11.77-14 18.3-2.91 4.63-5.45 9.51-8.86 13.82a27.51 27.51 0 0 1-11.62 8.82c-3.48 1.37-5.86.25-7.12-3.27-.31-.89-.49-1.84-.71-2.76-.8-3.37-.44-6.8-.52-10.2a21.63 21.63 0 0 0-1.35-7.69 4.57 4.57 0 0 0-8.51-.14 13.65 13.65 0 0 0-1 2.94 113.83 113.83 0 0 0-2.87 20 185.83 185.83 0 0 0 1.13 33.26A23.56 23.56 0 0 1 402 143a30.13 30.13 0 0 1-5.14 12.19C391 163.88 385 172.57 379 181.27c-8.62 12.57-17.43 25-26.78 37a19.68 19.68 0 0 1-2.95 3.1 5.83 5.83 0 0 1-7.08.64 6.26 6.26 0 0 1-3.39-7.37 16.65 16.65 0 0 1 .88-3 45.23 45.23 0 0 1 5.71-10.14c2.6-3.31 5.59-6.28 8.34-9.45 6.18-7.14 12.27-14.35 18.12-21.76 6.49-8.23 13-16.42 18.82-25.15a23.48 23.48 0 0 0 1.23-2 1.32 1.32 0 0 0-.07-1.57 1.37 1.37 0 0 0-1.53-.35 14.66 14.66 0 0 0-1.55.61A31.31 31.31 0 0 0 381 147c-7.94 6.59-15.79 13.27-23.76 19.83a175.39 175.39 0 0 1-21.52 15.29 25.18 25.18 0 0 1-6.23 2.94c-3.24.88-6.19.31-8.48-2.28-2.14-2.42-2-5.22-.94-8.06a19.27 19.27 0 0 1 1.37-2.77 40.19 40.19 0 0 1 8.93-10.46c6-5 12.22-9.86 18.3-14.83a279.22 279.22 0 0 0 25.48-22.89 26.3 26.3 0 0 0 3.41-4.27c.48-.79 1.16-1.69.45-2.63a2.64 2.64 0 0 0-2.61-.8 25.85 25.85 0 0 0-3 .63 25.5 25.5 0 0 0-6.29 2.8q-12 7.06-23.76 14.55a50.87 50.87 0 0 1-11.42 5.84 11.5 11.5 0 0 1-3.23.74 6.6 6.6 0 0 1-6.59-7.52 11.21 11.21 0 0 1 1.54-4A31.14 31.14 0 0 1 330 121a200.25 200.25 0 0 1 18.76-13.46 160.2 160.2 0 0 1 16.18-9.08c3.43-1.66 7-3 10.31-4.92a89.68 89.68 0 0 0 16.92-13.06c6.47-6.09 12.11-13 18.81-18.88A97.08 97.08 0 0 1 423 52.39a105 105 0 0 1 30.56-13 31.32 31.32 0 0 0 13.47-7.3c2.46-2.23 2.3-4.56-.44-6.5a14.7 14.7 0 0 0-4.83-2 125.63 125.63 0 0 0-45.76-3.4 121.83 121.83 0 0 0-30.71 7.38 124.62 124.62 0 0 0-32.07 18 127.51 127.51 0 0 0-36.16 44.21 124.09 124.09 0 0 0-7.51 19.29 131.63 131.63 0 0 0-5.26 36.14c0 2.14.32 4.28.34 6.41a78.48 78.48 0 0 0 .73 8.54 125.76 125.76 0 0 0 6.53 27 110.87 110.87 0 0 0 14.93 28.33c6.5 8.84 14.07 16.76 21.36 24.92a180.43 180.43 0 0 1 20.05 26.86c8.41 13.92 14.57 28.7 17.23 44.83.6 3.66.62 3.66 4.26 3.66h81.46a2 2 0 0 0 2.3-1.89c.08-.55.21-1.09.3-1.64a100.32 100.32 0 0 1 3.29-13.64 132.54 132.54 0 0 1 11.51-26.09 195.9 195.9 0 0 1 20.61-29.39c5.94-7 12.21-13.77 18-20.91a117.63 117.63 0 0 0 14.07-20.89 125 125 0 0 0 13.42-49.51 119.32 119.32 0 0 0-1.53-28 124.44 124.44 0 0 0-17.91-46.33 29 29 0 0 0-3.75-5.2c-2.76-2.74-6-2.34-7.87 1a30.84 30.84 0 0 0-3.78 20.89 99.43 99.43 0 0 1 1 22.79 141.38 141.38 0 0 1-3.38 22.09c-1 4.41-2 8.81-2.68 13.3-.92 6.28-1.56 12.58-2 18.92-.51 7.19-.92 14.39-1.35 21.6a28.55 28.55 0 0 1-1.54 8.86 9.21 9.21 0 0 1-15.55 2.91 16.52 16.52 0 0 1-3-5.11 32.71 32.71 0 0 1-1.54-15.26 50 50 0 0 0-.81-18.65 38.1 38.1 0 0 0-2.84-8.07c-1.59-3.09-3.55-4-6.88-2.95a33.92 33.92 0 0 0-4 1.62c-8.59 3.95-15.21 10.26-21 17.57s-10.41 15.56-14.76 23.86c-4.84 9.2-9.23 18.63-14.16 27.79a168.26 168.26 0 0 1-12.81 20.61c-1.55 2.1-3.13 4.22-5.56 5.45-2.88 1.45-5.85 2.09-8.91.62s-3.6-3.24-2.27-6.21a50.65 50.65 0 0 1 1.94-3.82q5.68-10.19 11.41-20.35 8.79-15.56 17.62-31.07 3.93-6.93 7.89-13.85a9.61 9.61 0 0 1 3.82-4.14 80.42 80.42 0 0 0 19-14.22c3.92-3.82 7.79-7.71 11.62-11.62a16.39 16.39 0 0 1 7-4.31c1.36-.42 2.7-.93 4.08-1.33a53.75 53.75 0 0 0 20-11.23 19.64 19.64 0 0 0 4.37-4.68 4.78 4.78 0 0 0-.13-5.39 4.65 4.65 0 0 0-4.92-2.17 9.45 9.45 0 0 0-3.5 1.38l-5.11 3.06c-5 3-10.13 5.64-16 6.59a11.66 11.66 0 0 1-1.65.22 1.39 1.39 0 0 1-1.42-.69c-.29-.65.25-1 .69-1.34s1.19-.8 1.78-1.21c5.18-3.53 10.39-7 15.28-11a99.63 99.63 0 0 0 10.32-9.16 19.39 19.39 0 0 0 4.38-6.73 4.51 4.51 0 0 0-1-4.85c-1.87-2.08-4-2.51-6.91-1.13a37.3 37.3 0 0 0-6.95 4.14c-7.8 6-15.73 11.83-24 17.17-.68.44-1.29 1.18-2.26 1-.32-1 .29-1.61.76-2.21 1.39-1.73 2.74-3.5 4.24-5.13 6.11-6.68 12.28-13.28 18.38-20a18.79 18.79 0 0 0 4.55-7.18 5.77 5.77 0 0 0-5.24-7.43c-2.67-.2-4.78 1-6.68 2.62-2.05 1.75-4 3.59-6 5.44-2.55 2.39-5 4.89-7.58 7.22a83.34 83.34 0 0 0-8.21 8.28 44.54 44.54 0 0 1-6.14 5.6 2.85 2.85 0 0 1-2.16 1 1.58 1.58 0 0 1-.07-1.22Z" class="cls-1"/><path d="M859.18 550.59c-2.48 0-5-.09-7.44 0a3.61 3.61 0 0 1-3.41-1.61c-4-5.26-8.08-10.47-12.13-15.69L820.38 513c-2.88-3.7-5.73-7.41-8.61-11.11a.81.81 0 0 0-1-.3 6.15 6.15 0 0 0-.15 2.44v43.65c0 3.26.23 2.91-3 2.93H797.3c-1.8 0-1.8-.05-1.86-1.92v-71.95c0-3.16-.19-2.88 2.81-2.89h8.4a2.14 2.14 0 0 1 2 1c6.34 8.08 12.75 16.1 19.13 24.15 4.85 6.11 9.82 12.12 14.45 18.4a4.77 4.77 0 0 0 2.06 1.7v-43.98c.06-1.71.07-1.75 1.75-1.76h13.2ZM534.63 519v-44.4c0-.92.42-1.26 1.32-1.25h12.47c1.16 0 1.56.57 1.55 1.62v72.68c0 3.28.23 3-3 3-1.92 0-3.84-.06-5.76 0a2.35 2.35 0 0 1-2.16-1.12q-5.7-7.51-11.5-15-6.74-8.68-13.52-17.35L502.17 502a.93.93 0 0 0-.94-.5 5.28 5.28 0 0 0-.23 2.5v43.41c0 3.62.34 3.2-3.19 3.22h-9.84c-2.29 0-2.29 0-2.32-2.42v-71.47c0-3.22-.16-2.88 2.8-2.89h8.16a2.7 2.7 0 0 1 2.42 1.15c3.63 4.63 7.34 9.18 11 13.79q7.5 9.44 14.94 18.92c2.51 3.19 5 6.41 7.49 9.6.54.61.91 1.47 2.17 1.69Z" class="cls-2"/><path d="M265.86 499.52v-23.51c0-1 .52-1.69 1.59-1.7h10.8a1.42 1.42 0 0 1 1.54 1.49c0 .8.05 1.6.05 2.4v39.1a30.61 30.61 0 0 0 1.22 8.51c2 6.87 6.57 11 13.5 12.51a21.86 21.86 0 0 0 10.45-.08c7.12-1.87 10.9-6.83 12.6-13.7a26.68 26.68 0 0 0 .62-6.43v-40.06c0-3.79 0-3.79 3.89-3.79h7.92c2.24 0 2.46.28 2.54 2.48v42.22a38.84 38.84 0 0 1-2.88 14.73c-3.91 9.51-11.21 14.93-21 17.26a40.53 40.53 0 0 1-17.84.09c-13.19-2.72-22.42-12.33-24.55-25.65a34.34 34.34 0 0 1-.47-5.73v-20.14Z" class="cls-1"/><path d="M692.62 550.6a69.66 69.66 0 0 1 3.21-7.77c4.84-10.83 9.74-21.62 14.61-32.43q7.83-17.43 15.62-34.86a2.43 2.43 0 0 1 2.63-1.75c4.32.1 8.64.06 13 0a2.14 2.14 0 0 1 2.31 1.41c1.89 4 3.53 8.16 5.44 12.16 2.2 4.6 4.12 9.31 6.3 13.9 1.68 3.52 3 7.2 4.71 10.71 1.49 3.08 2.84 6.21 4.23 9.33 1.52 3.41 3.12 6.78 4.66 10.18 1.67 3.7 3.41 7.37 5 11.12 1 2.54 2.6 4.89 3.07 7.6a1.64 1.64 0 0 1-1.44.39c-4.4 0-8.8-.07-13.19 0a2.28 2.28 0 0 1-2.44-1.7c-2.2-5-4.5-10-6.67-15.06-2.8-6.49-5.5-13-8.29-19.52-2.07-4.82-4.23-9.6-6.34-14.41-.86-2-1.7-3.94-2.55-5.92a8.38 8.38 0 0 0-1.46-2.62 22.55 22.55 0 0 0-2.15 4.46c-2.58 5.81-5 11.7-7.53 17.54-2.91 6.72-5.88 13.41-8.8 20.12-2 4.53-3.92 9.07-5.89 13.6-.35.8-.82 1.56-1.15 2.36a1.77 1.77 0 0 1-1.89 1.12c-4.89.02-9.77.04-15 .04ZM445.84 512.23v-36.92c0-1 .28-1.47 1.36-1.46h12.71c.93 0 1.3.43 1.27 1.31V547.6c0 3.3.25 3-2.93 3h-10.56c-1.8 0-1.82-.05-1.86-1.9v-4.08ZM676.86 512.2v36.92c0 1-.28 1.47-1.35 1.47h-12.24c-.92 0-1.31-.41-1.28-1.31V476.84c0-3.31-.24-3 2.92-3h10.08c1.81 0 1.81.05 1.87 1.9v1.92ZM572.07 512V475.27c0-1 .31-1.52 1.37-1.45h1.68c10.07 0 20.14-.09 30.21 0 10.47.11 19.47 3.83 26.49 11.7a35.14 35.14 0 0 1 6.93 12.4 42.74 42.74 0 0 1 2.35 15.21c-.33 9.76-3 18.84-9.84 26.21a33.14 33.14 0 0 1-21.73 10.74c-11.87 1.13-23.77.22-35.66.47-1.72 0-1.73-.05-1.79-1.71v-2.64Zm15 21.58c0 2.81-.15 2.7 2.55 2.67 5.57-.07 11.15.29 16.7-.47a22.88 22.88 0 0 0 9.58-3.34 21.64 21.64 0 0 0 9.07-13 28.48 28.48 0 0 0 .36-13 22.53 22.53 0 0 0-5.75-11.58 20.53 20.53 0 0 0-13.91-6.55c-5.73-.3-11.5-.06-17.25-.07-.87 0-1.37.29-1.34 1.23V512.23q.03 10.65.03 21.3Z" class="cls-2"/><path d="M85 511.87v-35.02c0-2.82.17-3 3-3 10.32 0 20.64-.1 31 .07 5.11.08 10.2.47 15 2.62a23.79 23.79 0 0 1 14.15 17 26.27 26.27 0 0 1-.94 15.34 21.09 21.09 0 0 1-14.27 13.46l-1.15.34c-1.92.59-2 .72-.66 2.29 3.24 3.74 6.54 7.44 9.81 11.16q5.31 6 10.63 12c.35.4.91.79.61 1.43s-1 .5-1.49.51h-13.98a3.07 3.07 0 0 1-2.47-1.23c-3-3.44-6-6.84-9-10.27q-5.52-6.31-11-12.69a3.63 3.63 0 0 0-3-1.25h-9.36c-2.16 0-2.52.38-2.53 2.55v19c0 3.93 0 3.93-4 3.93h-7.68c-2.56 0-2.67-.21-2.67-2.74v-35.5Zm27.58-24.2h-10.77c-2.07 0-2.38.32-2.39 2.37q-.06 9.69 0 19.39c0 2 .31 2.29 2.2 2.3 7.11 0 14.21.05 21.32 0a11.21 11.21 0 0 0 7.44-2.89 12.4 12.4 0 0 0 3.27-13.37 11.51 11.51 0 0 0-11-7.75c-3.35-.06-6.7 0-10.06 0ZM356.61 512v-34.56c0-3.41.14-3.55 3.48-3.56 8.16 0 16.32-.12 24.47 0 5.68.11 11.34.53 16.76 2.53A33.55 33.55 0 0 1 422 497.12a41 41 0 0 1 2.7 14.31c0 11.19-3.08 21.32-11.42 29.31-5.13 4.91-11.39 7.57-18.3 8.85a35.71 35.71 0 0 1-6.44.58h-30.23a1.54 1.54 0 0 1-1.62-1.69v-2.15ZM371 533.64c0 2.73.2 3 2.79 3 5.52 0 11 .26 16.54-.4 7.73-.93 13.79-4.46 17.27-11.65a27.85 27.85 0 0 0 1.79-19.86 22.91 22.91 0 0 0-5.49-10.25 22 22 0 0 0-15.72-6.66c-4.79-.17-9.59 0-14.39 0h-1.2a1.47 1.47 0 0 0-1.54 1.5V512.1q-.05 10.75-.05 21.54ZM0 512.21v-34.55c0-3.7.08-3.77 3.74-3.78h32.39a32 32 0 0 1 11.72 2.18c8.41 3.29 13.5 9.53 15.63 18.13a27 27 0 0 1-4.67 23.43c-4.33 5.86-10.4 8.8-17.47 9.92a45.77 45.77 0 0 1-7.4.48H17.38c-2.23 0-2.5.29-2.52 2.5v17.98a1.5 1.5 0 0 1-1.65 1.64H1.69c-1.08 0-1.56-.67-1.6-1.69v-2.16Zm14.86-.32c0 2.49.24 2.71 2.79 2.72h19.18a13.43 13.43 0 0 0 7.09-1.92c5.07-3.1 7.07-9.1 5.65-15.11-1.52-6.5-6.92-9.68-12.37-9.8-6.55-.14-13.11-.06-19.66 0-2.47 0-2.67.24-2.68 2.83v10.54c0 3.54-.03 7.15 0 10.74ZM205.46 552a39.09 39.09 0 1 1 39.08-39.08A39.13 39.13 0 0 1 205.46 552Zm0-65.11a26 26 0 1 0 26 26 26.05 26.05 0 0 0-26-26Z" class="cls-1"/></g></g></svg>
